<?xml version="1.0" encoding="utf-8"?>
<!-- Generator: Adobe Illustrator 24.0.1, SVG Export Plug-In . SVG Version: 6.00 Build 0)  -->
<svg version="1.1" id="Layer_1" xmlns="http://www.w3.org/2000/svg" xmlns:xlink="http://www.w3.org/1999/xlink" x="0px" y="0px"
	 viewBox="0 0 562 441.1" style="enable-background:new 0 0 562 441.1;" xml:space="preserve">
<style type="text/css">
	.st0{opacity:0.65;fill:url(#SVGID_1_);enable-background:new    ;}
	.st1{fill:url(#SVGID_2_);}
	.st2{fill:#8AB0FA;}
	.st3{fill:url(#SVGID_3_);}
	.st4{fill:url(#SVGID_4_);}
	.st5{fill:#606161;}
	.st6{fill:url(#SVGID_5_);}
	.st7{fill:url(#SVGID_6_);}
	.st8{fill:#FFFFFF;}
	.st9{fill:url(#SVGID_7_);}
	.st10{fill:url(#SVGID_8_);}
	.st11{fill:url(#SVGID_9_);}
	.st12{fill:url(#SVGID_10_);}
	.st13{fill:url(#SVGID_11_);}
	.st14{fill:url(#SVGID_12_);}
	.st15{fill:url(#SVGID_13_);}
	.st16{fill:url(#SVGID_14_);}
	.st17{fill:url(#SVGID_15_);}
	.st18{fill:url(#SVGID_16_);}
	.st19{fill:url(#SVGID_17_);}
	.st20{fill:url(#SVGID_18_);}
	.st21{fill:url(#SVGID_19_);}
	.st22{fill:url(#SVGID_20_);}
	.st23{fill:url(#SVGID_21_);}
	.st24{fill:url(#SVGID_22_);}
	.st25{fill:url(#SVGID_23_);}
	.st26{fill:url(#SVGID_24_);}
	.st27{fill:url(#SVGID_25_);}
	.st28{fill:url(#SVGID_26_);}
	.st29{fill:url(#SVGID_27_);}
	.st30{opacity:0.65;fill:url(#SVGID_28_);enable-background:new    ;}
	.st31{fill:url(#SVGID_29_);}
	.st32{fill:url(#SVGID_30_);}
	.st33{opacity:0.65;fill:url(#SVGID_31_);enable-background:new    ;}
	.st34{fill:url(#SVGID_32_);}
	.st35{fill:url(#SVGID_33_);}
	.st36{fill:url(#SVGID_34_);}
	.st37{opacity:0.65;fill:url(#SVGID_35_);enable-background:new    ;}
	.st38{fill:url(#SVGID_36_);}
	.st39{fill:url(#SVGID_37_);}
	.st40{fill:url(#SVGID_38_);}
	.st41{fill:url(#SVGID_39_);}
	.st42{fill:url(#SVGID_40_);}
	.st43{fill:none;}
</style>
<title>love 2</title>
<linearGradient id="SVGID_1_" gradientUnits="userSpaceOnUse" x1="260.5728" y1="93.8522" x2="284.0713" y2="93.8522" gradientTransform="matrix(1 0 0 -1 -2.53 409.7498)">
	<stop  offset="0" style="stop-color:#FFFFFF;stop-opacity:0"/>
	<stop  offset="7.000000e-02" style="stop-color:#FFFFFF;stop-opacity:0.22"/>
	<stop  offset="0.16" style="stop-color:#FFFFFF;stop-opacity:0.45"/>
	<stop  offset="0.25" style="stop-color:#FFFFFF;stop-opacity:0.65"/>
	<stop  offset="0.33" style="stop-color:#FFFFFF;stop-opacity:0.8"/>
	<stop  offset="0.4" style="stop-color:#FFFFFF;stop-opacity:0.91"/>
	<stop  offset="0.46" style="stop-color:#FFFFFF;stop-opacity:0.98"/>
	<stop  offset="0.51" style="stop-color:#FFFFFF"/>
</linearGradient>
<path class="st0" d="M281.5,310.5c-0.4,1.8-0.9,3.6-1.5,5.3c-0.6,2-1,4.1-1.1,6.3c0,0.7-0.1,1.4-0.4,2c-0.3,0.6-1,0.9-1.7,0.7l0.4-8
	c-0.9,1.9-1.9,3.6-3.1,5.3c-0.5,0.7-1,1.4-1.7,1.9c-0.7,0.4-1.4,0.8-2.1,1c-3.9,1.2-8.1,1.6-12.2,1.1c-0.2-1.3,0.8-2.4,1.8-3.2
	c3.9-3.4,8.8-5.5,12-9.5c1.2-1.5,2.1-3.2,3.2-4.6c0.9-1.2,3-3.4,4.7-3.1S281.7,309.1,281.5,310.5z"/>
<linearGradient id="SVGID_2_" gradientUnits="userSpaceOnUse" x1="268.86" y1="106.1804" x2="284.57" y2="106.1804" gradientTransform="matrix(1 0 0 -1 -2.53 409.7498)">
	<stop  offset="0" style="stop-color:#E4C5D5"/>
	<stop  offset="0.42" style="stop-color:#E9D3CF"/>
	<stop  offset="1" style="stop-color:#EFE8CA"/>
</linearGradient>
<path class="st1" d="M275,289.8c0,0-0.2,17.7-8.7,29.1c0,0,3.9,2.2,6.4,0s7.1-10,7.1-10l1.2-10.9l0.9-10.7L275,289.8z"/>
<path class="st2" d="M343.4,246c1.4-2.9,1.1-6.4-0.6-9.1c-1.8-2.6-4.3-4.7-7.3-5.9c-3-1.2-6-2.1-9.1-2.8
	c-11.4-3.1-22.2-7.8-33.4-11.5c-2-0.7-4.2-1.4-6.3-0.9c-2,0.6-3.7,2-4.8,3.7c-2.9,3.9-4.3,8.6-5.2,13.3c-2,10.4-1.9,21-1.7,31.6
	c0.1,9-1.5,17.8-1,26.8c1.3,0.1,2.5,0.4,3.7,0.8c1.2,0.4,2.5,0.2,3.6-0.6c0.5-0.5,0.8-1.1,1-1.7c2.2-5.6,3.3-11.6,4.9-17.4
	c3.1-11.3,8.4-22.6,7-34.2l10,8c3.9,3.1,7.9,6.2,12.5,8c3.4,1.2,6.9,2,10.5,2.1c2.6,0.3,5.3,0.1,7.8-0.7
	C338.7,254,341.3,249.7,343.4,246z"/>
<linearGradient id="SVGID_3_" gradientUnits="userSpaceOnUse" x1="292.8556" y1="126.1359" x2="313.0156" y2="172.936" gradientTransform="matrix(1 0 0 -1 -2.53 409.7498)">
	<stop  offset="0" style="stop-color:#010101;stop-opacity:0"/>
	<stop  offset="0.95" style="stop-color:#010101"/>
</linearGradient>
<path class="st3" d="M343.4,246c1.4-2.9,1.1-6.4-0.6-9.1c-1.8-2.6-4.3-4.7-7.3-5.9c-3-1.2-6-2.1-9.1-2.8
	c-11.4-3.1-22.2-7.8-33.4-11.5c-2-0.7-4.2-1.4-6.3-0.9c-2,0.6-3.7,2-4.8,3.7c-2.9,3.9-4.3,8.6-5.2,13.3c-2,10.4-1.9,21-1.7,31.6
	c0.1,9-1.5,17.8-1,26.8c1.3,0.1,2.5,0.4,3.7,0.8c1.2,0.4,2.5,0.2,3.6-0.6c0.5-0.5,0.8-1.1,1-1.7c2.2-5.6,3.3-11.6,4.9-17.4
	c3.1-11.3,8.4-22.6,7-34.2l10,8c3.9,3.1,7.9,6.2,12.5,8c3.4,1.2,6.9,2,10.5,2.1c2.6,0.3,5.3,0.1,7.8-0.7
	C338.7,254,341.3,249.7,343.4,246z"/>
<linearGradient id="SVGID_4_" gradientUnits="userSpaceOnUse" x1="283.4325" y1="134.2797" x2="268.3425" y2="-541.8804" gradientTransform="matrix(1 0 0 -1 -2.53 409.7498)">
	<stop  offset="0" style="stop-color:#010101;stop-opacity:0"/>
	<stop  offset="0.95" style="stop-color:#010101"/>
</linearGradient>
<path class="st4" d="M140.9,353.8c-4.2,0.3-9.3,1.1-10.8,5c7.6,3.5,16.3,3.8,24.7,3.9c39.5,0.3,77.6,4,117.1,3.8
	c44.3-0.3,89.8-3.8,134-4.5c7.6-0.1,15.4-0.5,22.2-3.8c-16.8-1.8-33.7-3-50.6-3.7c-64.2-2.6-128.6,3.3-192.8-1.5
	C170,351.9,155.6,352.9,140.9,353.8z"/>
<circle class="st5" cx="185.5" cy="332.4" r="27"/>
<linearGradient id="SVGID_5_" gradientUnits="userSpaceOnUse" x1="180.9655" y1="96.9478" x2="192.0155" y2="127.4978" gradientTransform="matrix(1 0 0 -1 0 441.8898)">
	<stop  offset="0" style="stop-color:#010101;stop-opacity:0"/>
	<stop  offset="0.95" style="stop-color:#010101"/>
</linearGradient>
<circle class="st6" cx="185.5" cy="332.4" r="27"/>
<path class="st2" d="M161.6,308.4l44.8,10.3c0,0-4.8-27.9-16.2-30.3S155.4,284.6,161.6,308.4z"/>
<linearGradient id="SVGID_6_" gradientUnits="userSpaceOnUse" x1="171.1401" y1="100.399" x2="225.0901" y2="105.599" gradientTransform="matrix(1 0 0 -1 -2.53 409.7498)">
	<stop  offset="0" style="stop-color:#010101;stop-opacity:0"/>
	<stop  offset="0.95" style="stop-color:#010101"/>
</linearGradient>
<path class="st7" d="M161.1,312.6l44.8,10.3c0,0-4.8-27.9-16.2-30.3S154.9,288.9,161.1,312.6z"/>
<circle class="st8" cx="185.4" cy="333.3" r="16.9"/>
<linearGradient id="SVGID_7_" gradientUnits="userSpaceOnUse" x1="162.3138" y1="141.9424" x2="293.9638" y2="-42.8475" gradientTransform="matrix(1 0 0 -1 0 441.8898)">
	<stop  offset="0" style="stop-color:#010101;stop-opacity:0"/>
	<stop  offset="0.95" style="stop-color:#010101"/>
</linearGradient>
<circle class="st9" cx="185.9" cy="333" r="13.8"/>
<circle class="st5" cx="346.1" cy="337.2" r="27"/>
<linearGradient id="SVGID_8_" gradientUnits="userSpaceOnUse" x1="347.2854" y1="85.8501" x2="345.8154" y2="109.2501" gradientTransform="matrix(1 0 0 -1 0 441.8898)">
	<stop  offset="0" style="stop-color:#010101;stop-opacity:0"/>
	<stop  offset="0.95" style="stop-color:#010101"/>
</linearGradient>
<circle class="st10" cx="346.1" cy="337.2" r="27"/>
<circle class="st8" cx="346.7" cy="337.5" r="16.9"/>
<linearGradient id="SVGID_9_" gradientUnits="userSpaceOnUse" x1="322.8938" y1="137.3924" x2="454.5438" y2="-47.3976" gradientTransform="matrix(1 0 0 -1 0 441.8898)">
	<stop  offset="0" style="stop-color:#010101;stop-opacity:0"/>
	<stop  offset="0.95" style="stop-color:#010101"/>
</linearGradient>
<circle class="st11" cx="346.5" cy="337.6" r="13.8"/>
<path class="st5" d="M285.4,212.2c0,0-42.3,18.8-45.5,35.4s-17.5,62-17.5,62l11.5,14l25.3-73.3l32.3-39.6L285.4,212.2z"/>
<linearGradient id="SVGID_10_" gradientUnits="userSpaceOnUse" x1="243.7892" y1="153.9173" x2="280.8392" y2="134.4073" gradientTransform="matrix(1 0 0 -1 -2.53 409.7498)">
	<stop  offset="0" style="stop-color:#010101;stop-opacity:0"/>
	<stop  offset="0.95" style="stop-color:#010101"/>
</linearGradient>
<path class="st12" d="M285.4,212.2c0,0-42.3,18.8-45.5,35.4s-17.5,62-17.5,62l11.5,14l25.3-73.3l32.3-39.6L285.4,212.2z"/>
<path class="st2" d="M226.2,314c-3.3-0.2-6.5-0.9-9.8-0.8c-1.7-0.1-3.4,0.3-4.8,1.3c-1.5,1-2,2.8-1.4,4.5c0.4,0.7,0.9,1.2,1.5,1.7
	c4.4,3.5,9.7,5.6,15.3,6.1c2.4,0.2,4.8,0.1,7.2,0.4c3.1,0.4,6,1.3,8.7,2.8l3.7-11.9c0.8-1.2,0.5-2.8-0.8-3.6
	c-0.2-0.1-0.4-0.2-0.6-0.3c-2.7-1.6-6.4-3.8-9.6-2.4C232.3,313.1,230,314.2,226.2,314z"/>
<linearGradient id="SVGID_11_" gradientUnits="userSpaceOnUse" x1="242.9327" y1="102.7562" x2="228.7927" y2="86.6662" gradientTransform="matrix(1 0 0 -1 -2.53 409.7498)">
	<stop  offset="0" style="stop-color:#010101;stop-opacity:0"/>
	<stop  offset="0.95" style="stop-color:#010101"/>
</linearGradient>
<path class="st13" d="M226.2,314c-3.3-0.2-6.5-0.9-9.8-0.8c-1.7-0.1-3.4,0.3-4.8,1.3c-1.5,1-2,2.8-1.4,4.5c0.4,0.7,0.9,1.2,1.5,1.7
	c4.4,3.5,9.7,5.6,15.3,6.1c2.4,0.2,4.8,0.1,7.2,0.4c3.1,0.4,6,1.3,8.7,2.8l3.7-11.9c0.8-1.2,0.5-2.8-0.8-3.6
	c-0.2-0.1-0.4-0.2-0.6-0.3c-2.7-1.6-6.4-3.8-9.6-2.4C232.3,313.1,230,314.2,226.2,314z"/>
<path class="st2" d="M287.6,150.1c0,0-11.5,25.7-20.2,27.3s-34.2,8.7-35.8,11.7s0.5,9.4,0.5,9.4s16.3,3.7,30.8-2.5
	c9.3-4.1,17.9-9.5,25.7-16.1l3.2-26.4L287.6,150.1z"/>
<linearGradient id="SVGID_12_" gradientUnits="userSpaceOnUse" x1="258.345" y1="239.0468" x2="307.435" y2="195.8168" gradientTransform="matrix(1 0 0 -1 -2.53 409.7498)">
	<stop  offset="0" style="stop-color:#010101;stop-opacity:0"/>
	<stop  offset="0.95" style="stop-color:#010101"/>
</linearGradient>
<path class="st14" d="M287.6,150.1c0,0-11.5,25.7-20.2,27.3s-34.2,8.7-35.8,11.7s0.5,9.4,0.5,9.4s16.3,3.7,30.8-2.5
	c9.3-4.1,17.9-9.5,25.7-16.1l3.2-26.4L287.6,150.1z"/>
<linearGradient id="SVGID_13_" gradientUnits="userSpaceOnUse" x1="215.94" y1="213.3294" x2="236.2845" y2="213.3294" gradientTransform="matrix(1 0 0 -1 -2.53 409.7498)">
	<stop  offset="0" style="stop-color:#E4C5D5"/>
	<stop  offset="0.42" style="stop-color:#E9D3CF"/>
	<stop  offset="1" style="stop-color:#EFE8CA"/>
</linearGradient>
<path class="st15" d="M224,189.9c-1.3-0.2-2.7-0.2-4,0c-1.1,0.2-2.1,0.6-3.1,1.1c-1.6,0.8-3.1,2.1-3.5,3.8c-0.2,1,0,2.1,0.4,3
	c0.9,2.6,3,4.5,5.7,5.1c1,0.3,2-0.1,2.5-0.9c0.1-0.4,0.3-0.8,0.3-1.2c0.5-1.2,1.6-2.1,2.9-2.2c1.3-0.2,2.5-0.2,3.8-0.1
	c1.3,0.1,2.5-0.3,3.6-1.1c0.9-0.9,1.3-2.1,1.1-3.3c-0.1-2-0.6-3.5-2.7-3.6C228.7,190.3,226.4,190.1,224,189.9z"/>
<path class="st2" d="M391.6,334.6c-50.1-1.2-100.4,10.8-150.1,3.8c-19.5-2.7-39.8-9.1-52.5-24.2c-6-7.2-9.9-17.4-7.1-26
	c0.4-1.4,1-2.7,1.8-4c2.1-3.3,5.2-5.7,7.8-8.5c7.1-7.6,10.7-17.9,12.4-28.2c1.7-10.3,1.8-20.8,3-31.1c0-1.2,0.4-2.3,1.1-3.3
	c0.3-0.3,0.7-0.6,1.1-0.8c1.5-0.6,3.2-0.5,4.6,0.3c4,2,6.2,6.5,6.6,11c0.4,4.5-0.6,8.9-1.6,13.2c-3.7,16.1-6.9,32.8-4.3,49.1
	s11.8,32.5,26.8,39.3c8.7,3.5,18.1,4.8,27.4,3.8c8.6-1,16.9-4.2,21.4-11.3c3.8-6,4.3-13.4,4.1-20.5c-0.1-5.9-0.6-11.7-1.3-17.6
	c-0.6-4.9-1.7-10.3-5.6-13.5c-1.7-1.2-3.5-2.2-5.5-2.9c-1-0.4-2.1-0.8-3.1-1.3c-2.9-1.4-5.8-3.8-5.9-7c-0.1-3,2.2-5.7,5-6.8
	s5.9-1.1,8.9-1c25.8,0.5,58-1,76.8,20.1c5.5,6.2,9.3,13.8,12.6,21.4C382.7,303.7,387.8,318.9,391.6,334.6z"/>
<linearGradient id="SVGID_14_" gradientUnits="userSpaceOnUse" x1="332.9926" y1="104.8217" x2="465.6226" y2="-71.6783" gradientTransform="matrix(1 0 0 -1 -2.53 409.7498)">
	<stop  offset="0" style="stop-color:#010101;stop-opacity:0"/>
	<stop  offset="0.95" style="stop-color:#010101"/>
</linearGradient>
<path class="st16" d="M342.9,261.2c0,0,39.5,25.2,37,59.2l-70.6,4.2L295.6,340l95.5-7.2c0,0-15.2-66.8-40.1-74.4L342.9,261.2z"/>
<linearGradient id="SVGID_15_" gradientUnits="userSpaceOnUse" x1="280.5205" y1="112.4857" x2="649.6205" y2="126.1357" gradientTransform="matrix(1 0 0 -1 -2.53 409.7498)">
	<stop  offset="0" style="stop-color:#010101;stop-opacity:0"/>
	<stop  offset="0.95" style="stop-color:#010101"/>
</linearGradient>
<path class="st17" d="M306.8,324.3c-7.5,3.4-38.8,7.5-38.8,7.5l0.5-2.6c8.6-1,16.9-4.2,21.4-11.3c3.8-6,4.3-13.4,4.1-20.5
	c-0.1-5.9-0.5-11.7-1.2-17.6c-0.6-4.9-1.7-10.3-5.6-13.5c-1.7-1.2-3.5-2.2-5.5-2.9l0.1-0.5c0,0,20.7,2.2,27.5,12.4
	S314.4,320.9,306.8,324.3z"/>
<path class="st5" d="M279.8,242.3c-3.6,0.1-8,0.8-9.4,4.1c-1.1,2.8,0.7,6,3.3,7.6s5.7,1.8,8.7,1.9c20.2,1.3,40.3,3.1,60.5,5.2
	c3,0.3,6,0.6,8.9-0.1s5.7-2.7,6.5-5.5c0.7-2.6-0.3-5.3-2.4-6.9c-2.7-1.9-4.5-0.5-7.2-0.3c-2.9,0.2-6-0.9-8.8-1.4
	c-6.6-1.2-16.8-14.5-23.5-15.3C303.1,230.3,293.2,242,279.8,242.3z"/>
<linearGradient id="SVGID_16_" gradientUnits="userSpaceOnUse" x1="315.8651" y1="144.4957" x2="320.1451" y2="181.9758" gradientTransform="matrix(1 0 0 -1 -2.53 409.7498)">
	<stop  offset="0" style="stop-color:#010101;stop-opacity:0"/>
	<stop  offset="0.95" style="stop-color:#010101"/>
</linearGradient>
<path class="st18" d="M280.5,242.3c-3.6,0.1-8,0.8-9.4,4.1c-1.1,2.8,0.7,6,3.3,7.6s5.7,1.8,8.7,1.9c20.2,1.3,40.3,3.1,60.5,5.2
	c3,0.3,6,0.6,8.9-0.1s5.7-2.7,6.5-5.5c0.7-2.6-0.3-5.3-2.4-6.9c-2.7-1.9-4.5-0.5-7.2-0.3c-2.9,0.2-6-0.9-8.8-1.4
	c-6.6-1.2-9-12.6-15.7-13.3C311.5,232.3,293.8,242,280.5,242.3z"/>
<path class="st2" d="M294,314.6c-0.4,2-1,4-1.7,5.9c-0.7,2.2-1.1,4.6-1.2,6.9c0,0.7-0.1,1.5-0.4,2.2c-0.3,0.7-1.1,1-1.9,0.8l0.4-8.9
	c-1,2.1-2.1,4-3.4,5.9c-0.5,0.8-1.1,1.5-1.9,2.1c-0.7,0.5-1.5,0.8-2.4,1c-4.4,1.3-9,1.8-13.5,1.3c-0.2-1.4,0.9-2.7,2-3.6
	c4.3-3.7,9.8-6.1,13.3-10.6c1.3-1.6,2.3-3.5,3.6-5.2c1-1.3,3.3-3.8,5.2-3.4S294.2,313,294,314.6z"/>
<path class="st5" d="M304.3,137.5c-1.9-3.6-0.7-8.3,2.1-11.2c2.8-2.9,7-4.2,11-4.3c6.4-0.1,12.6,2.7,16.9,7.5
	c1.4,1.6,2.7,3.6,4.7,4.5c1.6,0.7,3.4,0.7,5.1,0.9c3.3,0.4,6.6,1.6,8.6,4.2s3,6.8,6.3,8c1.7,0.6,3.6,0.1,5.5,0.2
	c6.4,0.2,10.7,6.5,16.6,8.9c2.5,1,5.2,1.3,7.8,2s5.2,2,6.5,4.3c2,3.5,0.4,7.9-1.4,11.5c-2,3.8-4.5,7.6-8.3,9.2
	c-1.9,0.7-3.9,1.2-5.9,1.3c-5.3,0.6-10.7,0.3-15.9-0.9c-5.2-1.2-10-4-13.6-8c-1.5-1.7-2.7-3.6-4.2-5.3c-1.5-1.7-3.5-2.9-5.8-3.2
	c-3-0.2-5.8,1.8-8.8,1.9c-3.5,0.1-6.7-2.3-10.2-2.7c-1.5-0.2-3.1,0-4.6-0.4c-2.6-0.8-4.3-3.5-5.1-6.1c-1.4-4.8,0.1-9.6-0.6-14.4
	C310.1,141.7,306,140.5,304.3,137.5z"/>
<linearGradient id="SVGID_17_" gradientUnits="userSpaceOnUse" x1="352.2958" y1="229.5288" x2="317.4358" y2="286.3288" gradientTransform="matrix(1 0 0 -1 -2.53 409.7498)">
	<stop  offset="0" style="stop-color:#010101;stop-opacity:0"/>
	<stop  offset="0.95" style="stop-color:#010101"/>
</linearGradient>
<path class="st19" d="M332,144.3c2.6,1.6,5.6,2.2,8.5,3.2s5.8,2.7,7,5.4c1,2.1,0.9,4.6,1.8,6.8c0.3,0.9,1,1.6,1.8,2
	c0.7,0.2,1.4,0.3,2.1,0.1c3.9-0.3,8.1-0.1,11.1,2.3c5,3.9,5.1,12.4,10.7,15.4c0.2,0.8-0.8,1.2-1.6,1.3c-6.4,1-13.3,1.1-18.8-2.3
	c-2-1.4-3.8-2.9-5.4-4.7l-6.8-6.9c-0.7-0.8-1.6-1.5-2.5-2c-1.3-0.6-2.6-0.8-4-0.7c-1.9,0-3.8,0.2-5.7,0.7c-1.5,0.4-3,0.9-4.5,1.1
	c-2,0.3-4,0.2-6-0.2c-2-0.2-3.8-1-5.5-2.1c-2.2-1.7-3.2-4.5-3.8-7.2c-0.6-2.7-0.8-5.4-0.7-8.2c-0.1-1.1,0.2-2.2,0.7-3.1
	c0.6-0.8,1.4-1.4,2.3-1.9c3.3-2,7.4-4.6,11.5-4.4C327.5,138.9,329.5,142.7,332,144.3z"/>
<path class="st8" d="M346.2,170.9c1.6,3.3,3,6.7,4.1,10.2c2.6,7.5,5.2,15.4,3.9,23.3c-0.3,1.9-1,3.8-2,5.4
	c-3.1,4.6-9.5,5.6-15.1,5.9c-1.4,0.2-2.8,0.1-4.2-0.3c-2.1-0.7-3.6-2.5-4.8-4.3c-7.3-10.4-9.8-23.4-10.6-36.1c-0.2-3.1-0.3-6.3,1-9
	c2.1-4.5,8.3-11.9,13.9-10.6C338.2,156.6,343.6,166,346.2,170.9z"/>
<path class="st8" d="M360.5,230.7c0.3,1.3,0.3,2.6,0.1,3.9c-0.6,2.3-2.8,2.9-4.7,3.2c-6.5,0.9-13.2,0.8-19.7-0.3
	c-1.3-0.1-2.5-0.7-3.3-1.8c-0.5-0.8-0.8-1.7-0.9-2.6c-1.5-6.3-2.7-12.6-3.5-19c-0.1-0.7-0.1-1.4,0-2.1c0.3-0.7,0.8-1.3,1.5-1.7
	c4.7-3,10.1-4.8,15.6-5.5c4.4-0.5,7.4,0.4,9.5,5.9C357.6,217.2,359.4,223.9,360.5,230.7z"/>
<linearGradient id="SVGID_18_" gradientUnits="userSpaceOnUse" x1="318.9468" y1="221.6012" x2="585.6568" y2="63.2912" gradientTransform="matrix(1 0 0 -1 -2.53 409.7498)">
	<stop  offset="0" style="stop-color:#010101;stop-opacity:0"/>
	<stop  offset="0.95" style="stop-color:#010101"/>
</linearGradient>
<path class="st20" d="M344.4,178.8c1.8,3.1,3.8,6.5,3.4,10.1c-0.3,2.5-1.6,4.8-2.5,7.1c-2.6,7.2-0.6,15.1,1.4,22.4
	c0.4,1.6,2.3,6.1,1,7.2c-1,0.9-4.1-1.8-5.4-2.4s-4.1,2.8-5.4,2.3c-5.6-2.1-7.9-2.3-8.2-10.4c-0.2-4,1-6.8,3-10
	c2.4-3.7,4.9-6.8,6.7-10.8C339.5,192,345.6,180.8,344.4,178.8z"/>
<linearGradient id="SVGID_19_" gradientUnits="userSpaceOnUse" x1="341.3831" y1="221.6527" x2="217.7831" y2="168.0127" gradientTransform="matrix(1 0 0 -1 -2.53 409.7498)">
	<stop  offset="0" style="stop-color:#010101;stop-opacity:0"/>
	<stop  offset="0.95" style="stop-color:#010101"/>
</linearGradient>
<path class="st21" d="M328.4,176.3c-0.4,0.5-0.9,0.8-1.5,0.9c-1,0-8.7-7.7-10.4-4c-0.3,0.5,0.9,1.3,1,1.8
	c3.8,14.2,8.3,28.2,12.1,42.4c2.7-2.2,3.8-5.9,3.9-9.3s-0.4-6.9-0.3-10.4c0.2-5.1,1.8-10,2.5-15c0.4-3,1.2-9.2-1-11.8
	C332.3,168,330.1,174.5,328.4,176.3z"/>
<path class="st2" d="M290,145.3c-2.4,2.9-2.7,7-2.7,10.8c-0.1,14.5,1.5,28.9,3.3,43.3c0.9,6.7,1.9,13.7,5.6,19.4
	c3.7,5.7,10.9,9.7,17.4,7.5c4.7-1.6,8-6.1,9.6-10.9c2.7-7.9,1.7-16.6-0.4-24.8s-5.4-15.9-7.3-24c-1.1-4.7-1.8-9.6-3.4-14.2
	c-1.4-3.9-4.1-9.8-8.4-11C299.5,140.1,292.7,142,290,145.3z"/>
<linearGradient id="SVGID_20_" gradientUnits="userSpaceOnUse" x1="307.2909" y1="254.4084" x2="360.7609" y2="288.6984" gradientTransform="matrix(1 0 0 -1 -2.53 409.7498)">
	<stop  offset="0" style="stop-color:#010101;stop-opacity:0"/>
	<stop  offset="0.95" style="stop-color:#010101"/>
</linearGradient>
<path class="st22" d="M302.1,144.6c0.2,0.6,1.1,0.8,1.5,1.2c0.4,0.5,0.5,1.2,0.5,1.8c0.4,2,1.3,3.8,2.7,5.2c1.4,1.4,2.7,2.9,3.8,4.5
	c1.6,2.6,2,5.9,3.5,8.6c0.5-2.8-0.8-5.6-1.4-8.4c-0.6-2.6-0.7-5.4-1.3-8s-2.1-5.3-4.5-6.5c-1.1-0.5-2.1-0.9-3.1-1.5
	c-0.6-0.4-1.4-0.6-2.1-0.6c-0.6,0-1,0.1-0.9,0.8c0,0.4,0.7,0.9,0.9,1.3C302.1,143.5,302,144,302.1,144.6z"/>
<linearGradient id="SVGID_21_" gradientUnits="userSpaceOnUse" x1="313.789" y1="234.1904" x2="212.049" y2="71.9904" gradientTransform="matrix(1 0 0 -1 -2.53 409.7498)">
	<stop  offset="0" style="stop-color:#010101;stop-opacity:0"/>
	<stop  offset="0.95" style="stop-color:#010101"/>
</linearGradient>
<path class="st23" d="M293.3,184c1.8-7.1,3.1-14.2,3.8-21.5c2.7,1.8,3.3,5.6,3.4,8.9c0.2,5,0,10.1-0.5,15.1
	c-0.3,2.3-0.6,4.8,0.6,6.7c1.5,2.7,5.2,3.5,8.1,2.6s5.4-2.9,7.8-4.8c0.8-0.6,1.8-1.3,2.8-1.1c1.4,0.3,1.8,2.1,1.6,3.5
	c-0.5,5.3-4.7,9.7-9.4,12s-10.2,2.9-15.5,3.4c-0.9,0.2-1.9,0.1-2.7-0.3c-1.1-0.7-1.4-2.1-1.5-3.3l-1.6-10.2
	c-0.1-0.9-1.4-2.8-1.2-3.5c0.2-1,1.3-1.1,1.8-1.9C291.9,187.9,292.7,186,293.3,184z"/>
<linearGradient id="SVGID_22_" gradientUnits="userSpaceOnUse" x1="299.229" y1="281.8943" x2="282.239" y2="278.3344" gradientTransform="matrix(1 0 0 -1 -2.53 409.7498)">
	<stop  offset="0" style="stop-color:#E4C5D5"/>
	<stop  offset="0.42" style="stop-color:#E9D3CF"/>
	<stop  offset="1" style="stop-color:#EFE8CA"/>
</linearGradient>
<path class="st24" d="M303.1,122.1c-0.5,5.9-1.7,11.7-1.3,17.5c0.1,1.4,0.3,3-0.4,4.3c-0.8,1.4-2.6,2-4.2,2.4
	c-2.5,0.6-5,0.9-7.5,0.9c-0.3,0-0.6,0-0.8-0.1c-0.2-0.2-0.3-0.5-0.4-0.7c-0.2-0.6-0.3-1.1-0.5-1.7c-0.3-0.8-0.5-1.6-0.8-2.4
	c-0.1-0.4-0.3-0.7-0.5-0.9c-0.1-0.1-0.3-0.1-0.4-0.1c-0.1,0-0.3,0-0.4,0c-1.3,0-2.5,0-3.8,0c-0.7,0.1-1.3,0-1.9-0.3
	c-1.1-0.6-1.7-1.7-1.8-2.9c-0.1-1.2-0.4-2.4-0.9-3.5c-0.7-1.1-2-1.9-2.3-3.3s0.5-2.4,1.2-3.5c1.1-1.8,1.8-3.8,2.1-5.9l1.1-4.2
	c1.1-2,3.2-3.3,5.2-4.5s4.2-2.5,6.5-2.5c1.6,0.1,3.2,0.5,4.6,1.3c2.1,0.9,4.1,2.3,5.7,4c0.8,0.9,1.4,1.9,1.7,3.1
	C303.2,120.1,303.2,121.1,303.1,122.1z"/>
<linearGradient id="SVGID_23_" gradientUnits="userSpaceOnUse" x1="298.7905" y1="279.1295" x2="202.7305" y2="123.0595" gradientTransform="matrix(1 0 0 -1 -2.53 409.7498)">
	<stop  offset="0" style="stop-color:#010101;stop-opacity:0"/>
	<stop  offset="0.95" style="stop-color:#010101"/>
</linearGradient>
<path class="st25" d="M288.8,144.6c-0.2,0-0.5,0.2-0.7,0.1c0,0-0.1,0-0.1-0.1c-0.3-0.8-0.5-1.6-0.8-2.4c-0.1-0.4-0.3-0.7-0.5-0.9
	c-0.1-0.1-0.3-0.1-0.4-0.1c2.6-0.5,5.1-2.3,7.9-3.6C294.1,137.7,294,143.6,288.8,144.6z"/>
<path class="st5" d="M275.3,114.7c1.4,2.7,4.6,4,7.7,3.9c1.4-0.1,3-0.3,3.9,0.7c0.6,0.6,0.8,1.6,1.5,1.9c1,0.4,2.3-0.4,3,0.3
	c0.2,0.3,0.4,0.6,0.5,1c0.5,0.9,1.5,1.3,2.5,1l0.3,6.5c0.5-0.9,0.7-1.9,0.6-2.9c0.1-1,0.5-2.2,1.5-2.4c3.5,0.4,2.2,5.6,0,7.5
	c0.7,0.6,1.3,1.4,1.7,2.3c0.5,0.8,1.5,1.5,2.3,1.1s1-1.6,1.1-2.6c0.5-2.1,1.4-4,2.7-5.7c1.3-1.7,2.4-3.6,3-5.6
	c0.5-2.1,0-4.5-1.7-5.8c0.9-1.1,1.9-2.4,1.7-3.8c-0.3-1-0.9-1.9-1.7-2.5c-1.4-1.3-3.2-2.8-5-2c-0.3,0.2-0.6,0.3-0.9,0.3
	c-0.8,0-1.2-0.8-1.5-1.5c-1.6-2.7-4.9-3.9-7.9-2.7c-0.4,0.2-0.9,0.4-1.4,0.4c-0.4,0-0.7-0.2-1-0.4c-1.6-0.9-3.6-1.7-5.4-0.6
	c-1.5,0.9-2.4,2.5-4,3.3C276.2,108.1,273.5,111,275.3,114.7z"/>
<linearGradient id="SVGID_24_" gradientUnits="userSpaceOnUse" x1="293.4294" y1="294.5623" x2="324.9594" y2="275.5422" gradientTransform="matrix(1 0 0 -1 -2.53 409.7498)">
	<stop  offset="0" style="stop-color:#010101;stop-opacity:0"/>
	<stop  offset="0.95" style="stop-color:#010101"/>
</linearGradient>
<path class="st26" d="M275.3,114.7c1.4,2.7,4.6,4,7.7,3.9c1.4-0.1,3-0.3,3.9,0.7c0.6,0.6,0.8,1.6,1.5,1.9c1,0.4,2.3-0.4,3,0.3
	c0.2,0.3,0.4,0.6,0.5,1c0.5,0.9,1.5,1.3,2.5,1l0.3,6.5c0.5-0.9,0.7-1.9,0.6-2.9c0.1-1,0.5-2.2,1.5-2.4c3.5,0.5,2.2,5.6,0,7.5
	c0.7,0.6,1.3,1.4,1.7,2.3c0.5,0.8,1.5,1.5,2.3,1.1s1-1.6,1.1-2.6c0.5-2.1,1.4-4,2.7-5.7c1.3-1.7,2.4-3.6,3-5.6
	c0.5-2.1,0-4.5-1.7-5.8c0.9-1.1,1.9-2.4,1.7-3.8c-0.3-1-0.9-1.9-1.7-2.5c-1.4-1.3-3.2-2.8-5-2c-0.3,0.2-0.6,0.3-0.9,0.3
	c-0.8,0-1.2-0.8-1.5-1.5c-1.6-2.7-4.9-3.9-7.9-2.7c-0.4,0.2-0.9,0.4-1.4,0.4c-0.4,0-0.7-0.2-1-0.4c-1.6-0.9-3.6-1.7-5.4-0.6
	c-1.5,0.9-2.4,2.5-4,3.3C276.2,108.1,273.5,111,275.3,114.7z"/>
<path class="st5" d="M292.9,208.1c0,0-36.5,23.8-43.1,35.5s-16.9,68.2-16.9,68.2l13.4,9l21.1-67.6c0,0,45-17.6,48.9-21.5
	s7.1-17.8,7.1-17.8L292.9,208.1z"/>
<linearGradient id="SVGID_25_" gradientUnits="userSpaceOnUse" x1="324.26" y1="254.8062" x2="335.53" y2="254.8062" gradientTransform="matrix(1 0 0 -1 -2.53 409.7498)">
	<stop  offset="0" style="stop-color:#E4C5D5"/>
	<stop  offset="0.42" style="stop-color:#E9D3CF"/>
	<stop  offset="1" style="stop-color:#EFE8CA"/>
</linearGradient>
<path class="st27" d="M331.4,164.2c-1.7,1.6-4.4,1.5-6.1-0.2c-0.1-0.1-0.1-0.2-0.2-0.3c-0.4-0.6-0.7-1.2-1-1.8
	c-0.9-2.2-1.7-4.4-2.3-6.7c0-0.2-0.1-0.3-0.1-0.5c-0.6-4.7,4.9-12.9,6.5-9.3C333.3,156.8,334.3,161.2,331.4,164.2z"/>
<linearGradient id="SVGID_26_" gradientUnits="userSpaceOnUse" x1="332.2531" y1="247.5827" x2="319.4331" y2="278.4627" gradientTransform="matrix(1 0 0 -1 -2.53 409.7498)">
	<stop  offset="0" style="stop-color:#010101;stop-opacity:0"/>
	<stop  offset="0.95" style="stop-color:#010101"/>
</linearGradient>
<path class="st28" d="M329.9,152.6c0.1,1.6,0,3.2,0,4.8c0,1.3-0.2,2.6-0.7,3.8c-0.4,1.2-1.4,2.2-2.7,2.6c-0.4,0.1-0.9,0.1-1.3,0
	c0,0-0.1,0-0.1,0c-0.4-0.6-0.7-1.2-1-1.8c-0.9-2.2-1.7-4.4-2.3-6.7c0-0.2-0.1-0.3-0.1-0.5c0.3-0.6,0.6-1.2,1-1.8
	c0.7-1.1,1.5-2.3,2.3-3.4c0.7-0.9,1.5-2.4,2.5-2.9C329.7,145.6,329.9,151.4,329.9,152.6z"/>
<linearGradient id="SVGID_27_" gradientUnits="userSpaceOnUse" x1="309.072" y1="263.2374" x2="331.3417" y2="263.2374" gradientTransform="matrix(1 0 0 -1 -2.53 409.7498)">
	<stop  offset="0" style="stop-color:#E4C5D5"/>
	<stop  offset="0.42" style="stop-color:#E9D3CF"/>
	<stop  offset="1" style="stop-color:#EFE8CA"/>
</linearGradient>
<path class="st29" d="M307.5,145.3c0.8,2,1.9,3.9,3.2,5.6c1.4,2,2.9,3.9,4.6,5.7c1.8,1.9,4.2,3.6,6.8,3.4c2.3-0.3,4.4-1.7,5.4-3.9
	c1-2.1,1.4-4.4,1.3-6.7c0-3.4-0.9-6.7-2.4-9.7c-1-2.1-2.6-3.8-4.5-5c-2.1-1.1-4.5-1.7-6.9-1.6c-1.4-0.1-2.8,0.1-4.1,0.5
	C305.9,135.4,305.9,141,307.5,145.3z"/>
<linearGradient id="SVGID_28_" gradientUnits="userSpaceOnUse" x1="270.5504" y1="89.2258" x2="296.5827" y2="89.2258" gradientTransform="matrix(1 0 0 -1 -2.53 409.7498)">
	<stop  offset="0" style="stop-color:#FFFFFF;stop-opacity:0"/>
	<stop  offset="7.000000e-02" style="stop-color:#FFFFFF;stop-opacity:0.22"/>
	<stop  offset="0.16" style="stop-color:#FFFFFF;stop-opacity:0.45"/>
	<stop  offset="0.25" style="stop-color:#FFFFFF;stop-opacity:0.65"/>
	<stop  offset="0.33" style="stop-color:#FFFFFF;stop-opacity:0.8"/>
	<stop  offset="0.4" style="stop-color:#FFFFFF;stop-opacity:0.91"/>
	<stop  offset="0.46" style="stop-color:#FFFFFF;stop-opacity:0.98"/>
	<stop  offset="0.51" style="stop-color:#FFFFFF"/>
</linearGradient>
<path class="st30" d="M294,314.6c-0.4,2-1,4-1.7,5.9c-0.7,2.2-1.1,4.6-1.2,6.9c0,0.7-0.1,1.5-0.4,2.2c-0.3,0.7-1.1,1-1.9,0.8
	l0.4-8.9c-1,2.1-2.1,4-3.4,5.9c-0.5,0.8-1.1,1.5-1.9,2.1c-0.7,0.5-1.5,0.8-2.4,1c-4.4,1.3-9,1.8-13.5,1.3c-0.2-1.4,0.9-2.7,2-3.6
	c4.3-3.7,9.8-6.1,13.3-10.6c1.3-1.6,2.3-3.5,3.6-5.2c1-1.3,3.3-3.8,5.2-3.4S294.2,313,294,314.6z"/>
<linearGradient id="SVGID_29_" gradientUnits="userSpaceOnUse" x1="279.71" y1="102.7742" x2="297.12" y2="102.7742" gradientTransform="matrix(1 0 0 -1 -2.53 409.7498)">
	<stop  offset="0" style="stop-color:#E4C5D5"/>
	<stop  offset="0.42" style="stop-color:#E9D3CF"/>
	<stop  offset="1" style="stop-color:#EFE8CA"/>
</linearGradient>
<path class="st31" d="M286.8,291.7c0,0-0.2,19.6-9.6,32.2c0,0,4.3,2.4,7.1,0s7.9-11,7.9-11l1.4-12l1-11.9L286.8,291.7z"/>
<path class="st2" d="M362.5,243.1c1.5-3.2,1.3-7.1-0.7-10.1c-2-2.9-4.8-5.2-8.1-6.5c-3.3-1.3-6.6-2.3-10.1-3.1
	c-12.6-3.4-24.6-8.6-37-12.8c-2.3-0.8-4.7-1.5-7-0.9c-2.2,0.7-4.1,2.2-5.3,4.1c-3.2,4.3-4.7,9.5-5.8,14.8c-2.2,11.5-2.1,23.3-1.9,35
	c0.1,10-1.6,19.7-1.1,29.7c1.4,0.1,2.7,0.4,4.1,0.9c1.3,0.4,2.8,0.2,4-0.6c0.5-0.5,0.9-1.2,1.1-1.9c2.4-6.2,3.6-12.9,5.4-19.3
	c3.5-12.5,9.3-25,7.7-37.9l11.1,8.8c4.3,3.4,8.7,6.9,13.8,8.9c3.7,1.4,7.6,2.2,11.6,2.4c2.9,0.3,5.8,0.1,8.6-0.8
	C357.4,252,360.3,247.3,362.5,243.1z"/>
<linearGradient id="SVGID_30_" gradientUnits="userSpaceOnUse" x1="325.8851" y1="161.7294" x2="318.575" y2="271.4394" gradientTransform="matrix(1 0 0 -1 -2.53 409.7498)">
	<stop  offset="0" style="stop-color:#010101;stop-opacity:0"/>
	<stop  offset="0.95" style="stop-color:#010101"/>
</linearGradient>
<path class="st32" d="M362.5,243.1c1.5-3.2,1.3-7.1-0.7-10.1c-2-2.9-4.8-5.2-8.1-6.5c-3.3-1.3-6.6-2.3-10.1-3.1
	c-12.6-3.4-24.6-8.6-37-12.8c-2.3-0.8-4.7-1.5-7-0.9c-2.2,0.7-4.1,2.2-5.3,4.1c-3.2,4.3-4.7,9.5-5.8,14.8c-2.2,11.5-2.1,23.3-1.9,35
	c0.1,10-1.6,19.7-1.1,29.7c1.4,0.1,2.7,0.4,4.1,0.9c1.3,0.4,2.8,0.2,4-0.6c0.5-0.5,0.9-1.2,1.1-1.9c2.4-6.2,3.6-12.9,5.4-19.3
	c3.5-12.5,9.3-25,7.7-37.9l11.1,8.8c4.3,3.4,8.7,6.9,13.8,8.9c3.7,1.4,7.6,2.2,11.6,2.4c2.9,0.3,5.8,0.1,8.6-0.8
	C357.4,252,360.3,247.3,362.5,243.1z"/>
<path class="st2" d="M196.4,191.3c0,0,17.1,4.9,19.4,7.9s2,15,2,15l-6.1-0.3c0,0,0.1-3-2.7-3.8s-13.5,0.5-13.5,0.5
	S193.8,192,196.4,191.3z"/>
<ellipse class="st2" cx="195.4" cy="201" rx="3.8" ry="9.7"/>
<linearGradient id="SVGID_31_" gradientUnits="userSpaceOnUse" x1="191.0999" y1="241.0458" x2="203.8499" y2="240.7058" gradientTransform="matrix(1 0 0 -1 0 441.8898)">
	<stop  offset="0" style="stop-color:#FFFFFF;stop-opacity:0"/>
	<stop  offset="7.000000e-02" style="stop-color:#FFFFFF;stop-opacity:0.22"/>
	<stop  offset="0.16" style="stop-color:#FFFFFF;stop-opacity:0.45"/>
	<stop  offset="0.25" style="stop-color:#FFFFFF;stop-opacity:0.65"/>
	<stop  offset="0.33" style="stop-color:#FFFFFF;stop-opacity:0.8"/>
	<stop  offset="0.4" style="stop-color:#FFFFFF;stop-opacity:0.91"/>
	<stop  offset="0.46" style="stop-color:#FFFFFF;stop-opacity:0.98"/>
	<stop  offset="0.51" style="stop-color:#FFFFFF"/>
</linearGradient>
<ellipse class="st33" cx="195.4" cy="201" rx="3.8" ry="9.7"/>
<path class="st8" d="M322.4,190.2c-0.4,1.3-1,2.6-1.8,3.8c-2.3,3.3-6.7,4.5-10.8,4.5s-8.1-0.9-12.1-0.5s-8.3,2.3-9.8,6
	c-0.5,1.2-0.5,2.7,0,3.9c0.8,1.3,2.1,2.3,3.5,2.8c11.4,4.9,24.4,2.5,36.4-0.5c3.1-0.8,6.3-1.6,8.8-3.7c2.2-2,3.9-4.6,4.9-7.4
	c3.3-8.2,3.9-17.2,4-26c0-6.6-5.7-18-12.2-9C328.1,171.2,325.5,182,322.4,190.2z"/>
<path class="st2" d="M212.1,197c4.5,0,9.1,0.3,13.6,0.9c9.2,1.1,2.3,9,2.3,9s-7.3,0.9-10.2,7.3S204.7,202.3,212.1,197z"/>
<linearGradient id="SVGID_32_" gradientUnits="userSpaceOnUse" x1="217.1103" y1="209.6252" x2="202.7303" y2="146.2352" gradientTransform="matrix(1 0 0 -1 -2.53 409.7498)">
	<stop  offset="0" style="stop-color:#010101;stop-opacity:0"/>
	<stop  offset="0.95" style="stop-color:#010101"/>
</linearGradient>
<path class="st34" d="M199.3,201c0,0,11.5,4,15.4,4.7s10.6-3.6,14-2.9s0.6,3.3,0.6,3.3s-6.2,1.6-9.1,4.4s-3.9,7.8-3.9,7.8l-5.7-5.7
	c0,0,1-0.9-1.7-2.3s-13.5,0.5-13.5,0.5S199.5,207.9,199.3,201z"/>
<path class="st2" d="M280,177.7c-1,1.8-2.2,3.4-3.8,4.8c-2.1,1.7-4.8,2.4-7.4,3.1l-24.4,6.4c-1,0.2-1.9,0.6-2.7,1.3
	c-1.1,1.2-1,3-0.7,4.6c0.7,4.6,2.5,9.8,6.7,11.1c2.6,0.8,5.4-0.3,7.9-1.3l28.7-11.8c2.7-1,5.3-2.3,7.7-3.9c2-1.5,3.8-3.3,5.5-5.3
	c5-5.6,10-11.8,12.1-19.3c2.2-7.8-2.2-23.6-12.4-17.9C288.6,154.3,284.9,169.5,280,177.7z"/>
<linearGradient id="SVGID_33_" gradientUnits="userSpaceOnUse" x1="223.3899" y1="206.3535" x2="248.0299" y2="206.3535" gradientTransform="matrix(1 0 0 -1 -2.53 409.7498)">
	<stop  offset="0" style="stop-color:#E4C5D5"/>
	<stop  offset="0.42" style="stop-color:#E9D3CF"/>
	<stop  offset="1" style="stop-color:#EFE8CA"/>
</linearGradient>
<path class="st35" d="M233.9,195.5c-3-0.3-6.1-0.3-8.8,1.1s-4.7,4.3-4.1,7.3c0.5,1.8,1.4,3.4,2.9,4.6c1.2,1.3,2.8,2.3,4.5,2.9
	c0.6,0.2,1.3,0.2,2,0.1c0.7-0.2,1.2-0.7,1.3-1.4c0-0.5,0-1-0.2-1.5c-0.5-1.8-0.8-3.7-0.6-5.6c0-0.3,0.1-0.6,0.2-0.9
	c0.2-0.3,0.5-0.5,0.9-0.6c1.4-0.6,3-0.3,4.1,0.8c1,1.2,0.7,3,1.6,4.3c0.7,1.1,2,1.6,3.3,1.4c1.2-0.4,2.2-1.3,2.9-2.3
	c0.7-0.9,1.3-1.9,1.6-3c0.5-1.9-0.3-5.1-2.4-5.9c-1.2-0.4-3.1-0.2-4.4-0.4C237,195.9,235.5,195.7,233.9,195.5z"/>
<circle class="st2" cx="234" cy="204.4" r="3.9"/>
<linearGradient id="SVGID_34_" gradientUnits="userSpaceOnUse" x1="177.3417" y1="143.6905" x2="536.8517" y2="86.4805" gradientTransform="matrix(1 0 0 -1 -2.53 409.7498)">
	<stop  offset="0" style="stop-color:#010101;stop-opacity:0"/>
	<stop  offset="0.95" style="stop-color:#010101"/>
</linearGradient>
<path class="st36" d="M234.4,333.6c0,0-24.4,3.4-43.1-23.4c-4.6-6.6-7.8-14.1-9.4-22c0.4-1.4,1-2.7,1.8-4c2.1-3.3,5.2-5.7,7.8-8.5
	c7.1-7.6,10.7-17.9,12.4-28.2c1.7-10.3,1.8-20.8,3-31.1c0-1.2,0.4-2.3,1.1-3.3c0.3-0.3,0.7-0.6,1.1-0.8c0.9,0.4,1.8,1,2.6,1.6
	c0,0,3.8,0.2,2.8,8.3c-1,8-14.1,48.8-6.1,69S234.4,333.6,234.4,333.6z"/>
<path class="st5" d="M306.3,144.2c0.3,0.4,0.7,0.7,1.2,0.9c0.3,0,0.6,0,0.9-0.1c1-0.1,2-0.5,2.8-1.2c0.8-0.7,0.8-1.9,0.2-2.7
	c0,0,0,0-0.1-0.1c0.8,0.8,2.1,1.1,3.2,0.8c1.1-0.3,2.1-0.8,3-1.4c0-0.7-0.2-1.4-0.6-2c1.1,1.9,4,1.8,5.7,0.5
	c0.2-0.2,0.4-0.3,0.7-0.4c0.3-0.1,0.7,0,1,0.1c0.8,0.3,2,0.4,2.3-0.4c0.1-0.2,0.1-0.5,0-0.8c-0.2-2-0.9-3.9-2.1-5.5
	c-1-1.2-2.3-2.1-3.8-2.6c-2.8-1.2-5.8-1.5-8.8-1.1c-3.2,0.4-7.5,2.4-8.5,5.8S304.3,141.7,306.3,144.2z"/>
<path class="st2" d="M302.2,139.4c-0.2-0.1-0.5,0-0.7,0.1l-10.3,3.3c-1.7,0.5-3.4,1.2-5,2c-0.3,0.1-0.6,0.4-0.8,0.6
	c-0.1,0.4-0.1,0.8,0,1.1c0.7,2.4,1.6,4.7,2.8,6.9c6.2-1.3,11.3-5.6,16.1-9.8c0.1-0.1,0.2-0.2,0.3-0.4
	C304.7,142.6,302.8,139.6,302.2,139.4z"/>
<linearGradient id="SVGID_35_" gradientUnits="userSpaceOnUse" x1="368.4884" y1="180.7982" x2="331.9184" y2="-19.1118" gradientTransform="matrix(1 0 0 -1 -2.53 409.7498)">
	<stop  offset="0" style="stop-color:#FFFFFF;stop-opacity:0"/>
	<stop  offset="0.11" style="stop-color:#FFFFFF;stop-opacity:1.000000e-02"/>
	<stop  offset="0.18" style="stop-color:#FFFFFF;stop-opacity:4.000000e-02"/>
	<stop  offset="0.24" style="stop-color:#FFFFFF;stop-opacity:0.1"/>
	<stop  offset="0.29" style="stop-color:#FFFFFF;stop-opacity:0.18"/>
	<stop  offset="0.34" style="stop-color:#FFFFFF;stop-opacity:0.28"/>
	<stop  offset="0.38" style="stop-color:#FFFFFF;stop-opacity:0.41"/>
	<stop  offset="0.43" style="stop-color:#FFFFFF;stop-opacity:0.56"/>
	<stop  offset="0.46" style="stop-color:#FFFFFF;stop-opacity:0.74"/>
	<stop  offset="0.5" style="stop-color:#FFFFFF;stop-opacity:0.93"/>
	<stop  offset="0.51" style="stop-color:#FFFFFF"/>
</linearGradient>
<path class="st37" d="M379.9,320.4c-3.3-2.6-5.7-6.2-8.5-9.4c-2.1-2.5-4.6-4.8-7.2-6.9h0.3c0.5,0,1-0.5,1-1c0-0.6-0.4-1-1-1h-3.3
	c-0.8-0.5-1.6-1-2.5-1.4h6c0.5-0.2,0.8-0.7,0.8-1.3c-0.1-1-0.8-1.1-0.8-1.1H353c-6-1.8-12.5-1.3-18.1,1.4c-5.3,2.8-13.5,0-11.1-7.1
	c2-6,7.4-12.6,12.9-15.6c3.1-1.7,6.5-2.6,10-2.6c10.6-0.3,20.5,6.5,26.1,15.5S380,309.9,379.9,320.4z"/>
<linearGradient id="SVGID_36_" gradientUnits="userSpaceOnUse" x1="355.6423" y1="112.8998" x2="355.9323" y2="99.5198" gradientTransform="matrix(1 0 0 -1 -2.53 409.7498)">
	<stop  offset="0" style="stop-color:#010101;stop-opacity:0"/>
	<stop  offset="0.95" style="stop-color:#010101"/>
</linearGradient>
<path class="st38" d="M365.5,299.5c0,0.5-0.3,0.9-0.8,1c-0.1,0-0.2,0-0.3,0h-22.7c-0.6,0-1-0.4-1-1s0.4-1,1-1h22.7
	c0.1,0,0.2,0,0.3,0C365.2,298.6,365.5,299.1,365.5,299.5z"/>
<linearGradient id="SVGID_37_" gradientUnits="userSpaceOnUse" x1="355.7026" y1="109.2898" x2="355.9926" y2="95.9098" gradientTransform="matrix(1 0 0 -1 -2.53 409.7498)">
	<stop  offset="0" style="stop-color:#010101;stop-opacity:0"/>
	<stop  offset="0.95" style="stop-color:#010101"/>
</linearGradient>
<path class="st39" d="M365.6,303.1c0,0.5-0.5,1-1,1h-22.7c-0.6,0-1-0.4-1-1s0.4-1,1-1h22.7C365.1,302.1,365.6,302.5,365.6,303.1
	C365.6,303.1,365.6,303.1,365.6,303.1z"/>
<linearGradient id="SVGID_38_" gradientUnits="userSpaceOnUse" x1="353.1573" y1="137.4397" x2="353.4473" y2="124.1397" gradientTransform="matrix(1 0 0 -1 0 441.8898)">
	<stop  offset="0" style="stop-color:#010101;stop-opacity:0"/>
	<stop  offset="0.95" style="stop-color:#010101"/>
</linearGradient>
<path class="st40" d="M341.9,306.1h22.7c0.6,0,1,0.5,1,1v0c0,0.6-0.5,1-1,1h-22.7c-0.6,0-1-0.5-1-1v0
	C340.9,306.5,341.3,306.1,341.9,306.1z"/>
<linearGradient id="SVGID_39_" gradientUnits="userSpaceOnUse" x1="287.53" y1="206.2513" x2="294.4" y2="206.2513" gradientTransform="matrix(1 0 0 -1 -2.53 409.7498)">
	<stop  offset="0" style="stop-color:#E4C5D5"/>
	<stop  offset="0.42" style="stop-color:#E9D3CF"/>
	<stop  offset="1" style="stop-color:#EFE8CA"/>
</linearGradient>
<path class="st41" d="M285.7,200.1c-0.6,1-0.8,2.1-0.7,3.3c0.1,1.5,0.7,2.9,1.6,4.1c0.2,0.3,0.5,0.6,0.9,0.8c0.4,0.2,0.8,0.2,1.1,0
	c0.5-0.3,0.5-0.9,0.6-1.5c0.3-1.2,0.8-2.2,1.4-3.2c1-1.5,1.9-2.8,0.1-4S287,198.2,285.7,200.1z"/>
<linearGradient id="SVGID_40_" gradientUnits="userSpaceOnUse" x1="298.2939" y1="280.0053" x2="306.0739" y2="286.8653" gradientTransform="matrix(1 0 0 -1 -2.53 409.7498)">
	<stop  offset="0" style="stop-color:#010101;stop-opacity:0"/>
	<stop  offset="0.95" style="stop-color:#010101"/>
</linearGradient>
<path class="st42" d="M296.8,128.7c0.1-0.3-0.1-0.7-0.2-1c-0.1-0.6,0.2-1.2,0.8-1.5c0.1-0.1,0.2-0.1,0.4-0.1
	c0.2,0.1,0.3,0.3,0.4,0.4c0.7,1.7,0,3.8-1.6,4.6c-0.1,0.1-0.2,0.1-0.4,0.1c-0.1,0-0.2-0.1-0.2-0.2c-0.3-0.4-0.3-1,0-1.5
	C296.2,129.2,296.7,129.2,296.8,128.7z"/>
<path class="st43" d="M329.6,219.2c-4.6-1.6-9.3-2.7-14.1-3.2"/>
<path class="st2" d="M326.1,79c-1.9,0.2-3.6,1.3-4.4,3c-1.3,2.8,0.1,6.2,2.2,8.3s5.1,3.4,7.6,5.1l4.5-5.1c1.4-1.6,2.9-3.4,3.1-5.6
	c0.2-3-2.1-5.6-5.1-5.8c-1.5,0-2.5,1.6-3.6,1.6C329.1,80.6,327.8,78.9,326.1,79z"/>
<path class="st2" d="M349,62.4c-1.1,0.8-1.6,2.2-1.5,3.5c0.2,1.3,1,2.4,2.1,3.2c1.1,0.7,2.4,1.1,3.7,1.2c3.5,0.3,7-0.9,10.3-2
	c-0.9-1-0.5-2.5-0.4-3.8c0.3-2.1-0.1-4.3-1.1-6.2c-0.4-0.8-1-1.6-1.7-2.1c-1.3-0.7-2.8-0.7-4.2-0.2c-1,0.2-1.9,0.8-2.5,1.6
	c-0.4,0.6-0.6,1.2-0.8,1.8c-0.2,0.8-0.4,1.7-0.5,2.5C351.2,61.5,350,61.7,349,62.4z"/>
<path class="st2" d="M316.6,44.3c-1.8,0.1-3.3,1.1-4,2.8c-0.8,2,0.2,4.4,1.7,5.9c1.7,1.8,4,2.9,6.5,3.2c1.4,0.1,2.7,0,4.1-0.1
	c0.2,0,0.3,0,0.5-0.1c0.1-0.1,0.2-0.2,0.3-0.4c1.1-2.2,2.1-4.5,2.9-6.9c0.4-1.1,0.6-2.3,0.5-3.5c-0.5-2.1-2.4-3.4-4.5-3.1
	c-0.8,0.2-1.5,0.6-2.1,1.2c-0.5,0.5-0.7,2.1-1.1,2.4C320.5,46.2,318,44.2,316.6,44.3z"/>
<path class="st2" d="M353.7,22.6c-0.7-1.6-2.9-1.6-4.6-1.3c-1.4,0.2-2.8,0.9-3.8,1.9c-1,1.6-0.8,3.7,0.5,5.1c1.3,1.3,3,2.2,4.8,2.5
	c1.8,0.4,3.6,0.5,5.4,0.9c1.6-2.4,2.8-5,3.7-7.7c0.4-1.1,0.6-2.3,0.3-3.4c-0.3-1.2-1.3-2-2.5-1.9c-0.4,0.1-0.9,0.3-1.2,0.6
	c-1.3,0.8-2.7,1.9-2.9,3.4"/>
</svg>
