<?xml version="1.0" encoding="utf-8"?>
<!-- Generator: Adobe Illustrator 24.0.1, SVG Export Plug-In . SVG Version: 6.00 Build 0)  -->
<svg version="1.1" id="Layer_1" xmlns="http://www.w3.org/2000/svg" xmlns:xlink="http://www.w3.org/1999/xlink" x="0px" y="0px"
	 viewBox="0 0 560.8 420.8" style="enable-background:new 0 0 560.8 420.8;" xml:space="preserve">
<style type="text/css">
	.st0{fill:url(#SVGID_1_);}
	.st1{fill:#FFFFFF;}
	.st2{fill:url(#SVGID_2_);}
	.st3{fill:#606161;}
	.st4{fill:url(#SVGID_3_);}
	.st5{fill:url(#SVGID_4_);}
	.st6{fill:url(#SVGID_5_);}
	.st7{fill:url(#SVGID_6_);}
	.st8{fill:url(#SVGID_7_);}
	.st9{fill:#8AB0FA;}
	.st10{fill:url(#SVGID_8_);}
	.st11{fill:url(#SVGID_9_);}
	.st12{fill:url(#SVGID_10_);}
	.st13{fill:url(#SVGID_11_);}
	.st14{fill:url(#SVGID_12_);}
	.st15{fill:url(#SVGID_13_);}
	.st16{fill:url(#SVGID_14_);}
	.st17{fill:url(#SVGID_15_);}
	.st18{fill:url(#SVGID_16_);}
	.st19{fill:url(#SVGID_17_);}
</style>
<title>love 1</title>
<linearGradient id="SVGID_1_" gradientUnits="userSpaceOnUse" x1="285.8255" y1="25.6098" x2="288.6054" y2="213.3998" gradientTransform="matrix(1 0 0 -1 -3.76 370.5197)">
	<stop  offset="0" style="stop-color:#010101;stop-opacity:0"/>
	<stop  offset="0.95" style="stop-color:#010101"/>
</linearGradient>
<path class="st0" d="M172.7,305.9c-2.4,0.5-5.4,1.7-5.3,4.2c0.2,1.4,1.1,2.5,2.3,3.1c3.9,2.5,8.8,2.5,13.4,2.3c24-0.6,48-1.4,72-2.2
	c2.9-0.1,6-0.3,8.4-1.8c0.9-0.7,1.8-1.3,2.8-1.7c0.9-0.2,1.9-0.3,2.9-0.2l12.6,0.9c-0.5,2.1,1,4.3,2.9,5.4c2,0.9,4.2,1.3,6.4,1.3
	c27.3,1.3,54.6,0.4,81.7-2.4c8.7-0.9,17.7-2.2,25-6.9c-2.9-5.4-10.2-6.2-16.4-6.3c-56.4-1-113-3.2-169.4-3
	C199.1,298.8,185.5,303.4,172.7,305.9z"/>
<path class="st1" d="M253.2,262.5c2.8,3.3,3.5,7.8,4.1,12l1.5,10c1,6.5,1.5,14.2-3.5,18.3c-3.2,2.6-7.7,2.9-11.8,3l-22.8,0.7
	c-3.4,0.1-6.8,0.2-10-0.7s-6.3-3.1-7.4-6.2c-1.4-3.9,0.2-8.1,1.1-12.1c1.1-5.2,1-10.9,4.2-15.1c2.1-2.8,5.4-4.4,8.6-5.7
	C225.4,263,245.6,253.2,253.2,262.5z"/>
<linearGradient id="SVGID_2_" gradientUnits="userSpaceOnUse" x1="248.8385" y1="102.041" x2="143.9885" y2="-53.399" gradientTransform="matrix(1 0 0 -1 -3.76 370.5197)">
	<stop  offset="0" style="stop-color:#010101;stop-opacity:0"/>
	<stop  offset="0.95" style="stop-color:#010101"/>
</linearGradient>
<path class="st2" d="M253.2,262.5c2.8,3.3,3.5,7.8,4.1,12l1.5,10c1,6.5,1.5,14.2-3.5,18.3c-3.2,2.6-7.7,2.9-11.8,3l-22.8,0.7
	c-3.4,0.1-6.8,0.2-10-0.7s-6.3-3.1-7.4-6.2c-1.4-3.9,0.2-8.1,1.1-12.1c1.1-5.2,1-10.9,4.2-15.1c2.1-2.8,5.4-4.4,8.6-5.7
	C225.4,263,245.6,253.2,253.2,262.5z"/>
<path class="st3" d="M361.8,264.8c4.5-1.5,10-2.7,13.9-0.6c2.4,1.2,3.8,3.9,3.5,6.6c-0.3,2.5-1.8,4.9-3.4,7.2
	c-5.5,7.7-12.3,14.5-20,20c-4.7,3.4-10,6.6-16.3,7.7c-4.1,0.6-8.2,0.7-12.3,0.4c-6.4-0.3-12.9-0.6-19.3-1.2
	c-3.8-0.4-7.7-0.8-10.9-2.4c-2.4-1.3-4.5-2.9-6.2-4.9c-8.5-8.7-16.1-18.4-17.2-29.3c-0.4-3.5,0.4-7.7,4.5-9.8
	c4.9-2.5,11.3-0.4,16.1,2c4.8,2.4,9.5,5,14,8c4.5,3,9,6.2,14.8,7.3C337.9,278.5,349.2,269,361.8,264.8z"/>
<linearGradient id="SVGID_3_" gradientUnits="userSpaceOnUse" x1="330.4158" y1="100.3419" x2="335.1158" y2="65.9119" gradientTransform="matrix(1 0 0 -1 -3.76 370.5197)">
	<stop  offset="0" style="stop-color:#010101;stop-opacity:0"/>
	<stop  offset="0.95" style="stop-color:#010101"/>
</linearGradient>
<path class="st4" d="M361.8,264.8c4.5-1.5,10-2.7,13.9-0.6c2.4,1.2,3.8,3.9,3.5,6.6c-0.3,2.5-1.8,4.9-3.4,7.2
	c-5.5,7.7-12.3,14.5-20,20c-4.7,3.4-10,6.6-16.3,7.7c-4.1,0.6-8.2,0.7-12.3,0.4c-6.4-0.3-12.9-0.6-19.3-1.2
	c-3.8-0.4-7.7-0.8-10.9-2.4c-2.4-1.3-4.5-2.9-6.2-4.9c-8.5-8.7-16.1-18.4-17.2-29.3c-0.4-3.5,0.4-7.7,4.5-9.8
	c4.9-2.5,11.3-0.4,16.1,2c4.8,2.4,9.5,5,14,8c4.5,3,9,6.2,14.8,7.3C337.9,278.5,349.2,269,361.8,264.8z"/>
<linearGradient id="SVGID_4_" gradientUnits="userSpaceOnUse" x1="240.89" y1="168.0819" x2="254" y2="168.0819" gradientTransform="matrix(1 0 0 -1 -3.76 370.5197)">
	<stop  offset="0" style="stop-color:#E4C5D5"/>
	<stop  offset="0.42" style="stop-color:#E9D3CF"/>
	<stop  offset="1" style="stop-color:#EFE8CA"/>
</linearGradient>
<path class="st5" d="M250.2,200.4c-0.2,0.4-0.5,0.8-0.8,1.2c-1.1,1.5-0.7,3.6-1.3,5.3c-0.9,2.4-3.7,3.5-6.1,4.3
	c-0.4,0.2-0.8,0.2-1.1,0.2c-0.4-0.1-0.7-0.3-0.9-0.6c-0.8-1-1.4-2.2-1.7-3.5c-0.7-2.2-1-4.6-0.9-6.9c0.2-2.3,1.3-4.5,3.1-6
	c0.7-0.6,1.6-0.9,2.4-1c1.9-0.1,3.8,0.6,5.1,2.1C248.6,196.6,250.7,198.9,250.2,200.4z"/>
<linearGradient id="SVGID_5_" gradientUnits="userSpaceOnUse" x1="303.89" y1="86.2823" x2="304.44" y2="86.2823" gradientTransform="matrix(1 0 0 -1 -3.76 370.5197)">
	<stop  offset="0" style="stop-color:#E4C5D5"/>
	<stop  offset="0.42" style="stop-color:#E9D3CF"/>
	<stop  offset="1" style="stop-color:#EFE8CA"/>
</linearGradient>
<path class="st6" d="M300.7,283.8c0,0.1,0,0.3,0,0.4C300,288.9,299.9,280.1,300.7,283.8z"/>
<linearGradient id="SVGID_6_" gradientUnits="userSpaceOnUse" x1="274.9902" y1="127.5704" x2="382.5571" y2="127.5704" gradientTransform="matrix(1 0 0 -1 -3.76 370.5197)">
	<stop  offset="0" style="stop-color:#E4C5D5"/>
	<stop  offset="0.42" style="stop-color:#E9D3CF"/>
	<stop  offset="1" style="stop-color:#EFE8CA"/>
</linearGradient>
<path class="st7" d="M369,303.5c-1.3-0.1-2.6-0.5-3.8-1.2c-0.5-0.3-1-0.6-1.5-0.3s-0.5,0.9-0.6,1.4c-0.4,1.4-1.7,2.3-3.2,2.1
	c-0.1,0-0.2,0-0.3-0.1c-0.1-0.1-0.1-0.2-0.1-0.3c0.1-1.2,0-2.5-0.2-3.7c-0.2-1.3-0.4-2.7-0.6-4c-0.4-2.6-0.8-5.3-1.3-7.9
	c-1.7-9.8-4.1-19.6-8.2-28.7c-1.2,7.2,0.1,14.6,0,21.9s-0.7,0.7-6.3,5.4c-5.4,4.4-13,4.9-20,4.5c-4.6-0.2-9.1-0.7-13.6-1.3
	c-2.5-0.4-5.2-0.9-6.9-2.8c-1-1.2-1.6-2.7-1.8-4.3c0-0.2-0.1-0.3-0.1-0.5c1.2-8.6,1.3-17.3,0.2-25.9c0.3,2.4-2.4,5.8-3.7,7.5
	c-1.9,2.5-4.2,4.6-6.4,6.9c-4.7,5-7.9,10.9-7.9,18c0,1.8,0.2,3.6,0.1,5.4c0,1.8-0.8,3.5-2.1,4.8c-0.5-1-0.9-2.1-1.2-3.2
	c-2.2,1.8-1.9,5.4-3.8,7.6c-0.3,0.4-0.7,0.7-1.2,0.8c-1,0.2-1.9-0.8-2.4-1.7c-1.5-3.1-1.4-6.7-0.3-10c0.8-2.4,1.8-4.7,3.1-6.9
	c1-1.9,1-3.6,1.5-5.6c1.1-5,2.4-9.9,3.8-14.8c2.8-9.8,5.8-19.4,8.6-29.2c2.3-7.9,4.2-15.8,5.8-23.9c0.4-2.1,1-4.2,1.7-6.1
	c0.4-1.2,1.1-2.4,1.9-3.4c1.9-2.4,5-3.4,7.8-4.4c2-0.7,4.1-1.6,6.1-2.5c1.8-0.7,3.4-1.7,4.7-3.1c0.4-0.4,0.7-0.9,1-1.4
	c0.5-1.1,0.9-2.2,1.1-3.4c0.2-1.6,0.2-3.2,0.1-4.8v-0.5c2.4-0.6,5.2-3.7,7.7-3.6c0.4,0,0.9,0.2,1.3,0.4c0.6,0.3,0.6,3.7,0.8,4.3
	c0.4,2.2,0,4.6,0.8,6.8c0.5,1.5,1.4,2.8,2.6,3.8c2.6,2.6,5.9,4.3,9.2,5.9c1.6,0.7,3.1,1.6,4.5,2.7c2.2,2,3.8,4.7,4.4,7.7
	c0.6,2.9,0.8,5.9,0.8,8.9c0.4,18.9,7.5,37.5,11.1,56l0.1,0.7c0.9,5,2.1,9.8,3.8,14.6c0.4,1,0.8,2.1,1.2,3.1c0.6,0.8,1.4,1.4,2.3,1.9
	c2,1.3,4.2,2.4,6.4,3.3c0.8,0.3,1.5,0.6,2.1,1.1c0.4,0.3,0.6,0.8,0.5,1.3c-0.3,0.4-0.7,0.6-1.2,0.6c-1.4,0.2-2.8,0.2-4.2,0.2
	C371.9,303.7,370.4,303.7,369,303.5z"/>
<linearGradient id="SVGID_7_" gradientUnits="userSpaceOnUse" x1="323.8692" y1="178.6928" x2="338.2792" y2="218.3628" gradientTransform="matrix(1 0 0 -1 -3.76 370.5197)">
	<stop  offset="0" style="stop-color:#010101;stop-opacity:0"/>
	<stop  offset="0.95" style="stop-color:#010101"/>
</linearGradient>
<path class="st8" d="M326.8,183.3c0,0-3.3,9.2-8.7,9.2l0,0c0.5-1.1,0.9-2.2,1.1-3.4c0.2-1.6,0.2-3.2,0.1-4.8L326.8,183.3z"/>
<path class="st9" d="M325.8,193.4c1.5-0.4,3.1-0.5,4.6-0.5c3.2,0.3,5.6,2.8,8.3,4.5c2.4,1.6,5.1,2.8,7.5,4.5
	c7.2,5.4,9.2,15.4,9.3,24.4s7.7,46.9,5.8,51.2c-0.8,1.5-1.9,2.9-3.2,4c-1.6,1.5-3.3,2.9-5.1,4.3c-0.4-0.6-2.5-12.1-2.9-12.7
	c0.2,7,0,14.1-0.7,21.1c0,1.3-0.4,2.7-1.1,3.8c-0.9,1-2.1,1.7-3.5,2c-7.7,2.1-15.8-0.7-23.7-1.5c-7.8-0.8-16.1,0.4-22.9-3.6
	c-0.6-0.3-1.1-0.7-1.4-1.3c-0.2-0.6-0.2-1.3,0-1.9c0.7-3.8,1.5-27.3,2.2-31.1c0.4,1.1-8.7,21.7-10,21.8c-1.2,0-2.5-0.4-3.5-1.1
	l-7.6-4.2c-0.6-0.3-1.1-0.7-1.5-1.2c-0.5-1-0.1-2.2,0.3-3.2c7.6-19.9,10.2-42.6,17.5-62.7c1.2-3.6,3.1-7,5.7-9.8
	c3.4-3.2,7.6-5.6,12.1-6.7C316.6,192.5,321.2,194.2,325.8,193.4z"/>
<linearGradient id="SVGID_8_" gradientUnits="userSpaceOnUse" x1="76.6762" y1="-189.9138" x2="88.8419" y2="-189.9138" gradientTransform="matrix(0.9441 -0.3295 -0.3295 -0.9441 129.4107 137.5518)">
	<stop  offset="0" style="stop-color:#E4C5D5"/>
	<stop  offset="0.42" style="stop-color:#E9D3CF"/>
	<stop  offset="1" style="stop-color:#EFE8CA"/>
</linearGradient>
<path class="st10" d="M271.5,296.6c0.3,0.6,0.6,1.2,0.9,1.8c0.9,1.8,1.9,3.6,3.6,4.8c0.2,0.2,0.6,0.3,0.9,0.3c0.7,0,1.1-0.8,1.3-1.4
	c0.7-1.5,1.1-3.2,1-4.9c-0.3-2.6-2.6-4.7-3.2-7.3c-0.1-0.5-0.2-0.9-0.5-1.3c-0.3-0.3-0.7-0.6-1-0.7c-1.9-1.1-3-3.8-4.3-5.6
	c-1.5-2.1-3.2-3.9-5.1-5.5c-0.6-0.6-1.4-0.8-2.3-0.7c-0.8,0.3-1.4,0.9-1.7,1.7c-1.7,4,1.5,6.2,3.7,9c1.5,1.9,3.1,3.7,4.5,5.6
	C270.1,293.6,270.9,295.1,271.5,296.6z"/>
<path class="st1" d="M250.6,222.5l8.6,21.6c4,10,8,20.3,7.6,31c0,0.8-0.1,1.6-0.4,2.4c-1,2.5-4,3.4-6.7,3.9
	c-7-12.8-14.2-25.9-16.3-40.4l-1.7,21.3c-0.1,1-0.1,2,0,3c0.2,1.2,0.6,2.3,1.2,3.4c1.6,3.6,3.4,7.1,5.3,10.5c2,3.2,4.3,6.3,5.8,9.8
	s2.1,7.6,0.5,11c-1.5,2.8-4,5-7,6c-3,1-6.1,1.5-9.3,1.5c-5.3,0.1-10.7-0.2-16-0.9c-3.4-0.4-12.4,0-13.9-3.1c-1-2-0.6-4.5,0.1-6.7
	c1.6-5.4,4.2-13,6.3-18.3s0.6-9.9-0.8-15.4c-1.9-7.4-4.8-13.4-4-21c-4.1,2.4-4,4.7-8.3,6.7c-2.7,1.2-6.3,2.2-8.3,0
	c-1.5-1.7-1.1-4.3-0.6-6.5l2.3-10.4c1.8-8.2,3.7-16.4,7.8-23.8c0.2-0.5,0.6-1,1.1-1.3c0.5-0.2,1-0.2,1.6,0c1.8,0.3,3.6,0.8,5.4,1.4
	c-2.2,5.7-3.5,11.7-3.8,17.8c7.3-1.9,10.4-11.4,17.6-13.6c5.3-1.6,9.9,1.6,15,2.3C245.4,215.4,248.3,216.8,250.6,222.5z"/>
<linearGradient id="SVGID_9_" gradientUnits="userSpaceOnUse" x1="234.8089" y1="115.4995" x2="204.5489" y2="233.7395" gradientTransform="matrix(1 0 0 -1 -3.76 370.5197)">
	<stop  offset="0" style="stop-color:#010101;stop-opacity:0"/>
	<stop  offset="0.95" style="stop-color:#010101"/>
</linearGradient>
<path class="st11" d="M235.9,230.4c-2.1,3.5-4.5,6.7-7.1,9.8c-3.4,3.8-7.7,7.3-8.9,12.2c-0.7,2.6-0.5,5.7-2.5,7.5
	c-0.3,0.3-0.6,0.5-1,0.5c-0.9,0-1.5-1-1.8-1.8c-2.4-6.6-4.3-13.4-5.8-20.3c-0.2-0.6-0.2-1.1-0.1-1.7c0.2-0.6,0.5-1.2,1-1.7
	c5.8-6.9,12.7-12.7,20.6-17.1c3.1-1.7,7-3.4,9.3,0.5S237.9,227.2,235.9,230.4z"/>
<path class="st3" d="M221.9,195c-2.2,6.5-6.7,11.9-12.6,15.4c-5.5,3.2-11.9,4.5-17.1,8.1c-6.5,4.6-10.2,12.1-9.9,20.1
	c3.1-1.4,6.3-2.8,9.7-2.6c2.8,0.2,5.4,1.4,8,2.4c4.5,1.6,9.3,2.2,14,1.9c7.4-0.5,14.9-3.7,19.1-9.8c2.1-3,3.3-6.6,5.2-9.7
	c3.1-4.9,0.8-7,4.4-11.6c1.2-1.4,2.1-3.1,2.6-4.9c0.6-2.7-0.3-5.5-1.5-8c-2.1-4.4,1.6-9.7-2.9-11.6c-4-1.7-9.1-1.2-13.1,0.5
	S223.1,191.3,221.9,195z"/>
<linearGradient id="SVGID_10_" gradientUnits="userSpaceOnUse" x1="216.677" y1="142.6089" x2="220.157" y2="171.4689" gradientTransform="matrix(1 0 0 -1 -3.76 370.5197)">
	<stop  offset="0" style="stop-color:#010101;stop-opacity:0"/>
	<stop  offset="0.95" style="stop-color:#010101"/>
</linearGradient>
<path class="st12" d="M221.9,195c-2.2,6.5-6.7,11.9-12.6,15.4c-5.5,3.2-11.9,4.5-17.1,8.1c-6.5,4.6-10.2,12.1-9.9,20.1
	c3.1-1.4,6.3-2.8,9.7-2.6c2.8,0.2,5.4,1.4,8,2.4c4.5,1.6,9.3,2.2,14,1.9c7.4-0.5,14.9-3.7,19.1-9.8c2.1-3,3.3-6.6,5.2-9.7
	c3.1-4.9,0.8-7,4.4-11.6c1.2-1.4,2.1-3.1,2.6-4.9c0.6-2.7-0.3-5.5-1.5-8c-2.1-4.4,1.6-9.7-2.9-11.6c-4-1.7-9.1-1.2-13.1,0.5
	S223.1,191.3,221.9,195z"/>
<ellipse transform="matrix(0.9788 -0.205 0.205 0.9788 -33.9161 51.5943)" class="st9" cx="232" cy="189.5" rx="28.4" ry="10.9"/>
<linearGradient id="SVGID_11_" gradientUnits="userSpaceOnUse" x1="210.31" y1="169.6834" x2="223.0884" y2="169.6834" gradientTransform="matrix(1 0 0 -1 -3.76 370.5197)">
	<stop  offset="0" style="stop-color:#E4C5D5"/>
	<stop  offset="0.42" style="stop-color:#E9D3CF"/>
	<stop  offset="1" style="stop-color:#EFE8CA"/>
</linearGradient>
<path class="st13" d="M210.9,197.3c1.4-2,3.3-3.6,5.5-4.5c0.9-0.4,2.2-0.6,2.7,0.3s0,1.6-0.4,2.4l-2.5,4.5c-0.1,0.1-0.1,0.3-0.1,0.4
	c0.1,0.3,0.5,0.3,0.7,0.4c0.6,0.3,0.5,1.2-0.1,1.6c-0.6,0.3-1.2,0.5-1.8,0.6c-1.9,0.6-3.2,2.3-4.3,3.9c-1.4,2.1-4.9,3.6-3.9-0.3
	C207.7,203.4,209.1,200.2,210.9,197.3z"/>
<path class="st9" d="M240.1,172.2c-2.1-1.4-4.6-2.2-7.1-2.4c-2.9-0.4-6-0.3-8.6,1c-2.5,1.4-4.5,3.8-5.4,6.6
	c-0.9,2.8-1.2,5.7-1.1,8.6c0,0.8,0.1,1.5,0.5,2.2c0.7,1.1,2.1,1.3,3.4,1.4c4.8,0.5,9.6,0.9,14.3-0.4c3.6-1,7.3-3.3,9-6.7
	C246.8,178.8,243.2,174.3,240.1,172.2z"/>
<linearGradient id="SVGID_12_" gradientUnits="userSpaceOnUse" x1="313.6367" y1="197.3767" x2="334.1527" y2="197.3767" gradientTransform="matrix(1 0 0 -1 -3.76 370.5197)">
	<stop  offset="0" style="stop-color:#E4C5D5"/>
	<stop  offset="0.42" style="stop-color:#E9D3CF"/>
	<stop  offset="1" style="stop-color:#EFE8CA"/>
</linearGradient>
<path class="st14" d="M310,177.5c-0.1,0.3-0.2,0.7-0.1,1c0.2,0.7,1,1.1,1.5,1.6c1.5,1.3,1.2,3.9,2.6,5.4s4,1.4,6.1,1.1
	c1.6-0.2,3.1-0.6,4.6-1.3c1.4-0.8,2.5-1.9,3.4-3.2c3.8-5.7,2.7-13.9-1.8-19.2c-1.2-1.5-2.7-2.6-4.5-3.2c-3.4-0.9-7,1.2-8.9,4.1
	C310.2,168.2,311.2,172.9,310,177.5z"/>
<path class="st3" d="M310.3,168.5c1.8,0.3,3.6-0.4,5.3-0.8c0.5-0.2,1.1-0.2,1.5,0c0.4,0.3,0.6,0.6,0.8,1l2.9,5.9
	c-0.3-0.9,0.2-1.8,1.1-2c0.1,0,0.1,0,0.2,0c0.9-0.1,1.9,0.3,2.3,1.1c0.5,0.8,0.6,1.7,0.3,2.6c-0.3,0.9-1.1,1.7-1.1,2.7
	c0,0.5,0.2,1,0.5,1.5c1.4,2.1,4.2,2.7,6.3,1.3c0.9-0.6,1.5-1.5,1.8-2.5c0.2-1,0.3-2,0.2-3l-0.3-10.7c-0.1-2.3-0.2-4.8-1.8-6.5
	c-1.3-1.2-2.9-2-4.6-2.4c-1.2-0.4-2.5-0.7-3.8-0.9c-4.7-0.6-10.2,1.8-13.9,4.6C305.1,162.6,306.5,167.8,310.3,168.5z"/>
<linearGradient id="SVGID_13_" gradientUnits="userSpaceOnUse" x1="310.2485" y1="201.4783" x2="336.3233" y2="201.4783" gradientTransform="matrix(1 0 0 -1 -3.76 370.5197)">
	<stop  offset="0" style="stop-color:#010101;stop-opacity:0"/>
	<stop  offset="0.95" style="stop-color:#010101"/>
</linearGradient>
<path class="st15" d="M310.3,168.5c1.8,0.3,3.6-0.4,5.3-0.8c0.5-0.2,1.1-0.2,1.5,0c0.4,0.3,0.6,0.6,0.8,1l2.9,5.9
	c-0.3-0.9,0.2-1.8,1.1-2c0.1,0,0.1,0,0.2,0c0.9-0.1,1.9,0.3,2.3,1.1c0.5,0.8,0.6,1.7,0.3,2.6c-0.3,0.9-1.1,1.7-1.1,2.7
	c0,0.5,0.2,1,0.5,1.5c1.4,2.1,4.2,2.7,6.3,1.3c0.9-0.6,1.5-1.5,1.8-2.5c0.2-1,0.3-2,0.2-3l-0.3-10.7c-0.1-2.3-0.2-4.8-1.8-6.5
	c-1.3-1.2-2.9-2-4.6-2.4c-1.2-0.4-2.5-0.7-3.8-0.9c-4.7-0.6-10.2,1.8-13.9,4.6C305.1,162.6,306.5,167.8,310.3,168.5z"/>
<linearGradient id="SVGID_14_" gradientUnits="userSpaceOnUse" x1="217.4902" y1="158.402" x2="230.1902" y2="132.512" gradientTransform="matrix(1 -4.000000e-02 -4.000000e-02 -1 17.0956 344.1298)">
	<stop  offset="0" style="stop-color:#010101;stop-opacity:0"/>
	<stop  offset="0.95" style="stop-color:#010101"/>
</linearGradient>
<path class="st16" d="M234.6,180c-4.8,1.8-10.1,1.8-15.2,1.5c-0.4-0.1-0.7,0-1.1,0.1c-0.3,0.2-0.5,0.5-0.6,0.8
	c-1,2.2-0.8,5.4,1.4,6.4c0.8,0.3,1.7,0.5,2.5,0.4c5.4,0.1,10.8-0.5,16-2c2.4-0.7,4.8-1.6,6.3-3.6c1.2-1.6,2.1-6.8-0.5-7.9
	c-1.2-0.5-2.8,1.1-3.7,1.6C238,178.5,236.3,179.3,234.6,180z"/>
<linearGradient id="SVGID_15_" gradientUnits="userSpaceOnUse" x1="238.9371" y1="193.6889" x2="246.8871" y2="166.4389" gradientTransform="matrix(1 0 0 -1 -3.76 370.5197)">
	<stop  offset="0" style="stop-color:#010101;stop-opacity:0"/>
	<stop  offset="0.95" style="stop-color:#010101"/>
</linearGradient>
<path class="st17" d="M239,184.1c-1.6-1.2-3.3-2.2-5.2-2.8c-0.2-0.1-0.4-0.1-0.7-0.1c-0.2,0.1-0.4,0.2-0.5,0.4
	c-1.4,1.6-1.8,3.8-1.1,5.8c0.3,0.9,1.1,1.9,2.1,1.8c0.5-0.1,0.9-0.3,1.3-0.5l1.8-1.1c0.2-0.1,0.4-0.2,0.6-0.3c0.4,0,0.8,0,1.1,0.2
	c0.8,0.3,1.7,0.5,2.6,0.5c0.9,0,1.7-0.4,2.3-1c1-1.2,0.7-3,0.2-4.5c-0.3-0.9-0.7-1.8-1.1-2.6c-0.1-0.1-0.2-0.2-0.3-0.3
	c-0.2-0.1-0.4-0.1-0.5-0.1c-1,0.2-1.9,0.8-2.5,1.5c-0.8,0.8-1.6,1.6-2.3,2.5"/>
<linearGradient id="SVGID_16_" gradientUnits="userSpaceOnUse" x1="292.1299" y1="115.0593" x2="446.8799" y2="70.8993" gradientTransform="matrix(1 0 0 -1 -3.76 370.5197)">
	<stop  offset="0" style="stop-color:#010101;stop-opacity:0"/>
	<stop  offset="0.95" style="stop-color:#010101"/>
</linearGradient>
<path class="st18" d="M306.1,221.6c2.8,24.3,4.8,49,0.6,73.1c0.1,1.6-1.1,2.9-2.7,3c-0.1,0-0.2,0-0.3,0c-1.5,0.3-3.2,0.2-4.6-0.3
	c-2.7-1.3-3.1-4.9-3.1-7.9c-0.2-5.9,0-11.8,0.6-17.7c0.6-5.1,2.6-9.3,3.9-14.3C303.6,245.7,305.5,233.7,306.1,221.6z"/>
<linearGradient id="SVGID_17_" gradientUnits="userSpaceOnUse" x1="365.9782" y1="128.8557" x2="253.3082" y2="94.7757" gradientTransform="matrix(1 0 0 -1 -3.76 370.5197)">
	<stop  offset="0" style="stop-color:#010101;stop-opacity:0"/>
	<stop  offset="0.95" style="stop-color:#010101"/>
</linearGradient>
<path class="st19" d="M346.1,206.8c3.1,1.8,5,5.1,6,8.6c0.8,3.5,1.1,7.1,1.1,10.6c0.5,15.2,2.8,30.3,6.7,45c0.6,1.7,0.8,3.5,0.5,5.3
	c-1,3.8-5.8,5.1-8.3,8.2c-0.6-5.6-2.3-10.8-2-16.4c0.3-7,0.9-13.9,1-20.8c0.1-6.9-0.2-13.8-0.9-20.7c-0.4-3.5-0.9-6.9-1.6-10.4
	C348.2,214.6,347.4,207.5,346.1,206.8z"/>
</svg>
