<?xml version="1.0" encoding="utf-8"?>
<!-- Generator: Adobe Illustrator 24.0.1, SVG Export Plug-In . SVG Version: 6.00 Build 0)  -->
<svg version="1.1" id="レイヤー_1" xmlns="http://www.w3.org/2000/svg" xmlns:xlink="http://www.w3.org/1999/xlink" x="0px"
	 y="0px" viewBox="0 0 886 442.5" style="enable-background:new 0 0 886 442.5;" xml:space="preserve">
<style type="text/css">
	.st0{fill:#FF0000;stroke:#FF0000;stroke-miterlimit:10;}
	.st1{fill:none;stroke:#FF0000;stroke-width:3;stroke-miterlimit:10;}
	.st2{fill:none;stroke:#FF0000;stroke-width:4;stroke-miterlimit:10;}
	.st3{fill:#FF0000;stroke:#FF0000;stroke-width:3;stroke-miterlimit:10;}
	.st4{fill:none;stroke:#FF0000;stroke-width:4.07;stroke-miterlimit:10;}
	.st5{fill:#FFFFFF;stroke:#FF0000;stroke-width:0.76;stroke-miterlimit:10;}
	.st6{fill:#FF0000;}
</style>
<title>アセット 4</title>
<g id="レイヤー_2_1_">
	<g id="レイヤー_1-2">
		<path class="st0" d="M374.6,26.6V0l18.1,19V1.7h3.8v26.4L378.4,9.1v17.4H374.6z"/>
		<path class="st1" d="M757.2,337.8c14.7-27.8,22.4-58.8,22.3-90.3v-14.9C779.5,125.6,692.8,39,586,39H195
			C88.2,39,1.5,125.6,1.5,232.5v14.9C1.5,354.3,88.2,441,195,441h391c21.2,0,42.2-3.4,62.2-10.2"/>
		<circle class="st1" cx="390.5" cy="240" r="94.5"/>
		<path class="st0" d="M346.3,228.6l-3,1.8c-0.4-0.8-0.9-1.4-1.6-1.9c-1.5-0.8-3.3-0.7-4.7,0.4c-0.6,0.5-1,1.3-1,2.2
			c0,1.2,0.9,2.2,2.7,2.9l2.5,1c1.7,0.6,3.2,1.6,4.4,3c1,1.2,1.5,2.8,1.4,4.3c0.1,2.1-0.8,4.2-2.3,5.7c-1.5,1.5-3.6,2.3-5.7,2.3
			c-2,0.1-3.9-0.6-5.4-1.9c-1.5-1.4-2.4-3.4-2.6-5.4l3.8-0.8c0.1,1.1,0.4,2.1,0.9,3c0.8,1.1,2.1,1.7,3.4,1.6c1.1,0,2.1-0.4,2.9-1.2
			c0.8-0.8,1.2-1.9,1.2-3c0-0.5-0.1-0.9-0.2-1.3c-0.1-0.4-0.3-0.8-0.6-1.1c-0.3-0.4-0.7-0.7-1.1-1c-0.5-0.3-1.1-0.6-1.6-0.8l-2.4-1
			c-3.4-1.4-5.1-3.6-5.1-6.3c0-1.8,0.8-3.5,2.1-4.7c1.5-1.3,3.4-2,5.3-1.9C342.4,224.4,344.7,225.8,346.3,228.6z"/>
		<path class="st0" d="M361.6,228.4v21.4h-3.8v-21.4h-5.7v-3.5h15.2v3.5H361.6z"/>
		<path class="st0" d="M388.6,243.7h-10.7l-2.8,6h-4l12.3-26.4l11.9,26.4h-4.1L388.6,243.7z M387,240.2l-3.7-8.5l-3.9,8.5H387z"/>
		<path class="st0" d="M414.5,236.8h10.3v0.8c0,1.7-0.2,3.4-0.7,5c-0.5,1.4-1.2,2.7-2.2,3.7c-2.2,2.6-5.4,4-8.8,3.9
			c-3.4,0-6.6-1.3-8.9-3.8c-5-5.1-4.9-13.4,0.3-18.4c2.4-2.3,5.6-3.7,9-3.7c1.9,0,3.7,0.4,5.4,1.2c1.8,1,3.4,2.3,4.8,3.9L421,232
			c-1.7-2.5-4.5-4-7.5-4.1c-2.5-0.1-4.9,0.9-6.6,2.7c-1.8,1.8-2.7,4.2-2.7,6.7c0,5,4,9.2,9,9.4c1.8,0,3.6-0.7,5-1.9
			c1.4-1.1,2.3-2.7,2.5-4.5h-6.2V236.8z"/>
		<path class="st0" d="M446.5,228.4h-10v6h9.7v3.5h-9.7v8.3h10v3.5h-13.7v-24.9h13.7V228.4z"/>
		<line class="st2" x1="33.5" y1="368" x2="49.5" y2="356"/>
		<line class="st1" x1="102.2" y1="427.5" x2="112.8" y2="410.5"/>
		<line class="st2" x1="33.5" y1="112" x2="49.5" y2="124"/>
		<line class="st1" x1="102.2" y1="52.5" x2="112.8" y2="69.5"/>
		<rect x="79" y="117.8" class="st1" width="171" height="238"/>
		<rect x="736.5" y="186.5" class="st1" width="16" height="107"/>
		<path class="st0" d="M108.1,246.5l5.2-26.8l8.5,19.3l8.9-19.3l4.7,26.8h-3.9l-2.4-15l-7.4,16.2l-7.2-16.2l-2.7,15L108.1,246.5z"/>
		<path class="st0" d="M142.8,234c0-3.4,1.4-6.7,3.9-9c2.4-2.5,5.8-3.8,9.2-3.8c7.1,0,12.9,5.8,12.9,12.9c0.1,3.4-1.3,6.7-3.8,9.1
			c-4.9,4.8-12.8,5-17.9,0.4C144.2,241.3,142.6,237.7,142.8,234z M146.5,234.1c-0.1,2.6,0.9,5,2.8,6.8c3.6,3.6,9.4,3.5,13-0.1
			c3.6-3.7,3.6-9.6,0-13.3c-1.7-1.8-4.1-2.8-6.5-2.7c-2.5-0.1-4.8,0.9-6.6,2.7C147.5,229.2,146.5,231.5,146.5,234.1L146.5,234.1z"/>
		<path class="st0" d="M176.8,246.5v-24.9h5.2c2-0.1,4,0.2,5.9,0.7c1.6,0.5,3,1.3,4.2,2.5c2.6,2.4,4,5.7,3.9,9.2
			c0.1,5.3-3.2,10.1-8.2,11.7c-1.9,0.5-3.9,0.8-5.9,0.7L176.8,246.5z M180.5,243h1.7c1.4,0,2.8-0.1,4.2-0.5c1.1-0.4,2.1-1,3-1.8
			c1.8-1.7,2.9-4.1,2.8-6.6c0.1-2.5-0.9-4.9-2.7-6.6c-1.6-1.5-4.1-2.3-7.3-2.3h-1.7L180.5,243z"/>
		<path class="st0" d="M217.8,225.2h-10v6h9.7v3.5h-9.7v8.3h10v3.5H204v-24.9h13.7L217.8,225.2z"/>
		<rect x="403.5" y="53.3" class="st1" width="192" height="17"/>
		<rect x="263.5" y="53.3" class="st1" width="110" height="17"/>
		<rect x="403.5" y="410.3" class="st1" width="192" height="17"/>
		<rect x="549.5" y="303" class="st1" width="30" height="16.5"/>
		<rect x="549.5" y="286.5" class="st1" width="30" height="16.5"/>
		<rect x="579.5" y="286.5" class="st1" width="30" height="33"/>
		<line class="st1" x1="609" y1="303" x2="579.5" y2="303"/>
		<rect x="579.5" y="223.5" class="st1" width="30" height="33"/>
		<rect x="549.5" y="240" class="st1" width="30" height="16.5"/>
		<rect x="549.5" y="223.5" class="st1" width="30" height="16.5"/>
		<line class="st1" x1="609" y1="240" x2="579.5" y2="240"/>
		<rect x="609.5" y="240" class="st1" width="30" height="16.5"/>
		<rect x="549.5" y="160.5" class="st1" width="60" height="33"/>
		<line class="st1" x1="579.5" y1="160.5" x2="579.5" y2="193.5"/>
		<line class="st1" x1="549.5" y1="177" x2="609" y2="177"/>
		<rect x="549.5" y="303.3" class="st3" width="30" height="16"/>
		<polyline class="st4" points="561,312.8 617.2,410.8 886,410.8 		"/>
		<path class="st0" d="M630.1,350.5h8.8v-8h3.1v20.4h-3.1v-9.5h-8.8v9.5H627v-20.3h3.1L630.1,350.5z"/>
		<path class="st0" d="M653.8,360h7.6v2.9h-13.7l7.1-8.5c0.7-0.9,1.3-1.6,1.7-2.2c0.4-0.5,0.7-1,1.1-1.6c0.4-0.7,0.7-1.4,0.8-2.2
			c0-0.9-0.3-1.8-1-2.4c-0.7-0.7-1.6-1-2.5-1c-2.1,0-3.2,1.2-3.5,3.6h-3.1c0.5-4.3,2.7-6.4,6.5-6.4c1.7,0,3.4,0.6,4.7,1.8
			c1.2,1.1,1.9,2.7,1.9,4.4c0,1.1-0.3,2.3-0.9,3.3c-0.4,0.7-0.8,1.4-1.3,2c-0.6,0.8-1.3,1.6-2.2,2.7L653.8,360z"/>
		<path class="st0" d="M667.6,352.6c-0.1-2.8,0.7-5.5,2.3-7.8c1.8-2.7,5.5-3.4,8.2-1.6c0.6,0.4,1.2,1,1.6,1.6c3,4.8,3,11,0,15.8
			c-1.1,1.6-2.9,2.6-4.9,2.6c-2,0-3.8-1-4.9-2.6C668.3,358.7,667.6,356,667.6,352.6z M670.6,352.6c-0.1,1.9,0.3,3.9,1.2,5.6
			c0.8,1.5,1.8,2.2,3,2.2s2.2-0.7,3-2.2c1.6-3.5,1.6-7.5,0-11.1c-0.8-1.5-1.8-2.2-3-2.2s-2.2,0.7-3,2.2
			C670.9,348.9,670.5,350.8,670.6,352.6L670.6,352.6z"/>
		<path class="st0" d="M690.5,352.4c-1.4-1-2.3-2.6-2.2-4.3c0-1.6,0.6-3.1,1.7-4.1c1.1-1.1,2.7-1.7,4.3-1.7c1.6,0,3.1,0.6,4.2,1.7
			c1.1,1.1,1.7,2.6,1.7,4.1c0,1.7-0.8,3.3-2.2,4.3c0.8,0.4,1.5,1.1,1.9,1.9c0.5,0.9,0.7,1.9,0.7,2.9c0.1,1.7-0.6,3.3-1.8,4.4
			c-1.2,1.2-2.8,1.8-4.5,1.7c-1.7,0.1-3.4-0.6-4.7-1.7c-1.2-1.1-1.9-2.7-1.8-4.4C687.6,355.1,688.7,353.2,690.5,352.4z M690.8,357
			c0,0.9,0.4,1.8,1,2.4c0.6,0.6,1.5,1,2.4,1c0.9,0,1.8-0.4,2.4-1c1.3-1.3,1.3-3.5,0-4.8c-0.6-0.6-1.5-1-2.4-1c-0.9,0-1.8,0.4-2.4,1
			C691.1,355.3,690.8,356.1,690.8,357L690.8,357z M691.1,348c0,0.8,0.3,1.6,0.9,2.2c1.2,1.2,3.1,1.2,4.3,0s1.2-3.1,0-4.3
			c-1.2-1.2-3.1-1.2-4.2-0.1c0,0,0,0-0.1,0.1C691.5,346.5,691.1,347.2,691.1,348L691.1,348z"/>
		<path class="st5" d="M564.5,318.6c-0.7-0.7-3.3-3.5-4.6-5s-2.7-3.5-2.7-5.9c0-2,1.5-3.7,3.5-3.7c0,0,0,0,0,0
			c1.8,0,3.3,1.2,3.8,2.9l0,0c0.4-1.7,2-2.9,3.8-2.9c2,0,3.6,1.7,3.6,3.7c0,0,0,0,0,0c0,2.4-1.3,4.3-2.7,5.9
			S565.2,317.9,564.5,318.6L564.5,318.6z"/>
		<path class="st6" d="M624.6,378.9h6v2.2c1.2-1.7,3.1-2.7,5.2-2.6c1.2,0,2.4,0.3,3.5,0.8c1,0.6,1.8,1.5,2.3,2.6
			c1.4-2.2,3.8-3.5,6.4-3.4c1.9-0.1,3.8,0.5,5.2,1.8c1.8,1.7,1.9,4.2,1.9,5.6v11.8h-6v-9.5c0-1,0-2.6-0.8-3.6c-0.5-0.7-1.3-1-2.2-1
			c-0.9,0-1.8,0.4-2.3,1.1c-0.7,1.1-1,2.4-0.9,3.7v9.3h-6v-9.7c0-1.3,0-2.7-1-3.6c-0.5-0.5-1.3-0.8-2-0.7c-0.8,0-1.5,0.2-2.1,0.7
			c-1.1,1.1-1.2,3.2-1.2,3.8v9.5h-6L624.6,378.9z"/>
		<path class="st6" d="M670.1,378.9v10.3c-0.1,1.1,0.3,2.2,1,3c0.7,0.6,1.6,0.9,2.5,0.9c0.9,0,1.8-0.3,2.6-0.9c0.7-0.8,1.1-1.9,1-3
			v-10.3h6v10.9c0,2.1-0.2,4.1-2.1,6c-2.1,2.1-5.3,2.4-7.5,2.4s-5.4-0.3-7.5-2.4c-1.5-1.5-2.2-3.5-2-5.6v-11.3H670.1z"/>
		<path class="st6" d="M703.5,383.7c-1-0.6-2.1-1-3.3-1c-0.6,0-1.2,0.2-1.7,0.5c-0.2,0.2-0.4,0.5-0.4,0.8c0,0.4,0.3,0.7,0.6,0.8
			c0.6,0.3,1.2,0.5,1.8,0.6l1.6,0.5c1.1,0.3,2.2,0.9,3.1,1.6c1,0.9,1.6,2.2,1.5,3.6c0,1.8-0.7,3.6-1.9,4.9c-1.7,1.5-3.9,2.3-6.1,2.1
			c-2.8,0.1-5.5-0.8-7.7-2.7l2.5-4c0.6,0.5,1.3,1,2,1.4c0.8,0.4,1.6,0.6,2.5,0.6c0.7,0.1,1.3-0.1,1.9-0.4c0.4-0.3,0.6-0.7,0.6-1.2
			c0-0.5-0.3-0.9-0.7-1.1c-0.6-0.3-1.2-0.5-1.8-0.7l-1.5-0.5c-1.1-0.3-2.1-0.9-3-1.7c-0.9-0.9-1.4-2.1-1.3-3.4
			c0-1.6,0.6-3.2,1.8-4.3c1.6-1.3,3.6-2,5.7-1.9c2.2-0.1,4.3,0.5,6.2,1.6L703.5,383.7z"/>
		<path class="st6" d="M720.5,378.9v10.3c-0.1,1.1,0.3,2.2,1,3c0.7,0.6,1.6,0.9,2.5,0.9c0.9,0,1.8-0.3,2.6-0.9c0.7-0.8,1.1-1.9,1-3
			v-10.3h6v10.9c0,2.1-0.2,4.1-2.1,6c-2.1,2.1-5.3,2.4-7.5,2.4s-5.4-0.3-7.5-2.4c-1.4-1.5-2.2-3.5-2-5.6v-11.3H720.5z"/>
		<path class="st6" d="M748.7,367.1V381c1.4-1.8,3.6-2.8,5.8-2.7c2.4,0,4.7,0.9,6.5,2.5c2,1.9,3,4.6,2.9,7.4c0.1,2.8-1,5.5-2.9,7.5
			c-1.7,1.7-4,2.7-6.4,2.6c-2.3,0.2-4.6-0.9-5.9-2.9v2.2h-6V367L748.7,367.1z M749.7,384.9c-0.9,0.9-1.4,2.2-1.3,3.4
			c0,1.3,0.5,2.5,1.4,3.4c0.9,0.9,2.1,1.3,3.4,1.4c1.2,0,2.3-0.5,3.1-1.3c0.9-0.9,1.5-2.1,1.5-3.4c0.1-2.6-2-4.8-4.6-4.9
			C751.8,383.4,750.5,383.9,749.7,384.9L749.7,384.9z"/>
		<path class="st6" d="M775.3,367.4c1.9,0,3.5,1.6,3.5,3.5c0,1.9-1.6,3.5-3.5,3.5c-1.9,0-3.5-1.5-3.5-3.5l0,0
			C771.8,369.1,773.3,367.5,775.3,367.4C775.3,367.5,775.3,367.5,775.3,367.4L775.3,367.4z M778.3,378.9v18.7h-6v-18.7H778.3z"/>
		<path class="st6" d="M801.9,378.9h6v18.7h-6v-2.2c-1.2,1.9-3.3,3-5.5,2.9c-2.6,0.1-5.2-0.9-7-2.8c-1.8-1.9-2.8-4.4-2.7-7
			c-0.1-2.8,1-5.5,2.9-7.5c1.7-1.7,4.1-2.6,6.5-2.5c2.3-0.1,4.5,0.9,5.9,2.7L801.9,378.9z M794.3,384.8c-0.9,0.9-1.4,2.1-1.4,3.4
			c-0.1,2.6,1.9,4.8,4.5,4.8c0.1,0,0.2,0,0.3,0c1.2,0,2.3-0.5,3.1-1.3c1.9-1.9,1.9-5,0.1-6.9c-0.9-0.8-2.1-1.3-3.3-1.3
			C796.3,383.5,795.2,384,794.3,384.8L794.3,384.8z"/>
		<path class="st6" d="M820.3,367.4c1.9,0,3.5,1.6,3.5,3.5c0,1.9-1.6,3.5-3.5,3.5c-1.9,0-3.5-1.6-3.5-3.5l0,0
			C816.7,369,818.3,367.5,820.3,367.4C820.2,367.4,820.2,367.4,820.3,367.4L820.3,367.4z M823.3,378.9v18.7h-6v-18.7H823.3z"/>
		<path class="st6" d="M856.2,397.6h-15.3l6-6.5c1.2-1.3,2.2-2.6,3.3-4c0.7-1,1.1-2.2,1.2-3.4c0-0.7-0.3-1.5-0.8-2
			c-0.5-0.4-1.2-0.6-1.8-0.6c-0.7,0-1.4,0.2-1.8,0.8c-0.5,0.7-0.8,1.6-0.8,2.5h-4.6c0.1-1.8,0.9-3.6,2.1-5c1.5-1.4,3.5-2.2,5.5-2.1
			c1.9-0.1,3.8,0.6,5.2,1.9c1.2,1.3,1.9,3,1.8,4.8c0,1.6-0.5,3.1-1.5,4.4c-1,1.2-2,2.4-3.2,3.4l-2.1,2h6.9L856.2,397.6z"/>
		<path class="st0" d="M862,392.6c1.5,0,2.7,1.2,2.7,2.7c0,1.5-1.2,2.7-2.7,2.7c-1.5,0-2.7-1.2-2.7-2.7l0,0
			C859.3,393.9,860.5,392.6,862,392.6C862,392.6,862,392.6,862,392.6z"/>
		<path class="st6" d="M880.1,396c-1.4,1.4-3.4,2.1-5.3,2.1c-2,0.1-3.9-0.7-5.3-2.1c-2-1.9-2.9-4.9-2.9-8.3s0.9-6.5,2.9-8.4
			c1.4-1.4,3.3-2.1,5.3-2.1c2-0.1,3.9,0.7,5.3,2.1c1.9,1.9,2.9,4.9,2.9,8.4S882.1,394,880.1,396z M873,381.9
			c-1.5,1.4-1.7,4.3-1.7,5.7s0.3,4.4,1.7,5.7c1,1,2.7,1,3.7,0c1.4-1.4,1.7-4.2,1.7-5.7s-0.2-4.3-1.7-5.7
			C875.7,380.9,874,380.9,873,381.9z"/>
	</g>
</g>
</svg>
