<?xml version="1.0" encoding="utf-8"?>
<!-- Generator: Adobe Illustrator 24.0.1, SVG Export Plug-In . SVG Version: 6.00 Build 0)  -->
<svg version="1.1" id="Layer_1" xmlns="http://www.w3.org/2000/svg" xmlns:xlink="http://www.w3.org/1999/xlink" x="0px" y="0px"
	 viewBox="0 0 557.9 467.5" style="enable-background:new 0 0 557.9 467.5;" xml:space="preserve">
<style type="text/css">
	.st0{opacity:0.24;fill:#8AB0FA;enable-background:new    ;}
	.st1{fill:url(#SVGID_1_);}
	.st2{fill:url(#SVGID_2_);}
	.st3{fill:url(#SVGID_3_);}
	.st4{fill:url(#SVGID_4_);}
	.st5{fill:url(#SVGID_5_);}
	.st6{fill:url(#SVGID_6_);}
	.st7{fill:#E9CAC5;}
	.st8{fill:#FFFFFF;}
	.st9{fill:#8AB0FA;}
	.st10{fill:#F2FBFF;}
	.st11{fill:url(#SVGID_7_);}
	.st12{fill:#606161;}
	.st13{fill:url(#SVGID_8_);}
	.st14{fill:url(#SVGID_9_);}
	.st15{fill:url(#SVGID_10_);}
	.st16{fill:url(#SVGID_11_);}
</style>
<title>Personal data 2</title>
<path class="st0" d="M207.6,409.4c-15.3,0.1-31.4,2.2-43.9,11c-2.1,1.5-4.1,3.3-4.9,5.7c-2,6.4,5.7,11.4,12.1,13.2
	c17.8,5,36.6,4.6,55.1,4.3l57.1-1.1c4.8-0.1,10.4-0.5,13.2-4.5c2.5-3.4,1.7-8.4-0.8-11.8s-6.3-5.6-10.1-7.3
	C261.1,407.7,233.8,409.2,207.6,409.4z"/>
<linearGradient id="SVGID_1_" gradientUnits="userSpaceOnUse" x1="255.19" y1="385.6048" x2="455.76" y2="385.6048" gradientTransform="matrix(1 0 0 -1 0 467.8898)">
	<stop  offset="0" style="stop-color:#FFFFFF;stop-opacity:0"/>
	<stop  offset="0.13" style="stop-color:#FFFFFF;stop-opacity:0.23"/>
	<stop  offset="0.23" style="stop-color:#FFFFFF;stop-opacity:0.41"/>
	<stop  offset="0.35" style="stop-color:#FFFFFF;stop-opacity:0.59"/>
	<stop  offset="0.48" style="stop-color:#FFFFFF;stop-opacity:0.74"/>
	<stop  offset="0.6" style="stop-color:#FFFFFF;stop-opacity:0.85"/>
	<stop  offset="0.72" style="stop-color:#FFFFFF;stop-opacity:0.93"/>
	<stop  offset="0.84" style="stop-color:#FFFFFF;stop-opacity:0.98"/>
	<stop  offset="0.95" style="stop-color:#FFFFFF"/>
</linearGradient>
<rect x="255.2" y="59.6" class="st1" width="200.6" height="45.5"/>
<linearGradient id="SVGID_2_" gradientUnits="userSpaceOnUse" x1="255.19" y1="322.8348" x2="455.76" y2="322.8348" gradientTransform="matrix(1 0 0 -1 0 467.8898)">
	<stop  offset="0" style="stop-color:#FFFFFF;stop-opacity:0"/>
	<stop  offset="0.13" style="stop-color:#FFFFFF;stop-opacity:0.23"/>
	<stop  offset="0.23" style="stop-color:#FFFFFF;stop-opacity:0.41"/>
	<stop  offset="0.35" style="stop-color:#FFFFFF;stop-opacity:0.59"/>
	<stop  offset="0.48" style="stop-color:#FFFFFF;stop-opacity:0.74"/>
	<stop  offset="0.6" style="stop-color:#FFFFFF;stop-opacity:0.85"/>
	<stop  offset="0.72" style="stop-color:#FFFFFF;stop-opacity:0.93"/>
	<stop  offset="0.84" style="stop-color:#FFFFFF;stop-opacity:0.98"/>
	<stop  offset="0.95" style="stop-color:#FFFFFF"/>
</linearGradient>
<rect x="255.2" y="122.3" class="st2" width="200.6" height="45.4"/>
<linearGradient id="SVGID_3_" gradientUnits="userSpaceOnUse" x1="255.19" y1="260.0648" x2="455.76" y2="260.0648" gradientTransform="matrix(1 0 0 -1 0 467.8898)">
	<stop  offset="0" style="stop-color:#FFFFFF;stop-opacity:0"/>
	<stop  offset="0.13" style="stop-color:#FFFFFF;stop-opacity:0.23"/>
	<stop  offset="0.23" style="stop-color:#FFFFFF;stop-opacity:0.41"/>
	<stop  offset="0.35" style="stop-color:#FFFFFF;stop-opacity:0.59"/>
	<stop  offset="0.48" style="stop-color:#FFFFFF;stop-opacity:0.74"/>
	<stop  offset="0.6" style="stop-color:#FFFFFF;stop-opacity:0.85"/>
	<stop  offset="0.72" style="stop-color:#FFFFFF;stop-opacity:0.93"/>
	<stop  offset="0.84" style="stop-color:#FFFFFF;stop-opacity:0.98"/>
	<stop  offset="0.95" style="stop-color:#FFFFFF"/>
</linearGradient>
<rect x="255.2" y="185.1" class="st3" width="200.6" height="45.4"/>
<linearGradient id="SVGID_4_" gradientUnits="userSpaceOnUse" x1="255.19" y1="197.2948" x2="455.76" y2="197.2948" gradientTransform="matrix(1 0 0 -1 0 467.8898)">
	<stop  offset="0" style="stop-color:#FFFFFF;stop-opacity:0"/>
	<stop  offset="0.13" style="stop-color:#FFFFFF;stop-opacity:0.23"/>
	<stop  offset="0.23" style="stop-color:#FFFFFF;stop-opacity:0.41"/>
	<stop  offset="0.35" style="stop-color:#FFFFFF;stop-opacity:0.59"/>
	<stop  offset="0.48" style="stop-color:#FFFFFF;stop-opacity:0.74"/>
	<stop  offset="0.6" style="stop-color:#FFFFFF;stop-opacity:0.85"/>
	<stop  offset="0.72" style="stop-color:#FFFFFF;stop-opacity:0.93"/>
	<stop  offset="0.84" style="stop-color:#FFFFFF;stop-opacity:0.98"/>
	<stop  offset="0.95" style="stop-color:#FFFFFF"/>
</linearGradient>
<rect x="255.2" y="247.9" class="st4" width="200.6" height="45.5"/>
<linearGradient id="SVGID_5_" gradientUnits="userSpaceOnUse" x1="255.19" y1="134.5247" x2="455.76" y2="134.5247" gradientTransform="matrix(1 0 0 -1 0 467.8898)">
	<stop  offset="0" style="stop-color:#FFFFFF;stop-opacity:0"/>
	<stop  offset="0.13" style="stop-color:#FFFFFF;stop-opacity:0.23"/>
	<stop  offset="0.23" style="stop-color:#FFFFFF;stop-opacity:0.41"/>
	<stop  offset="0.35" style="stop-color:#FFFFFF;stop-opacity:0.59"/>
	<stop  offset="0.48" style="stop-color:#FFFFFF;stop-opacity:0.74"/>
	<stop  offset="0.6" style="stop-color:#FFFFFF;stop-opacity:0.85"/>
	<stop  offset="0.72" style="stop-color:#FFFFFF;stop-opacity:0.93"/>
	<stop  offset="0.84" style="stop-color:#FFFFFF;stop-opacity:0.98"/>
	<stop  offset="0.95" style="stop-color:#FFFFFF"/>
</linearGradient>
<rect x="255.2" y="310.6" class="st5" width="200.6" height="45.5"/>
<linearGradient id="SVGID_6_" gradientUnits="userSpaceOnUse" x1="255.19" y1="71.7548" x2="455.76" y2="71.7548" gradientTransform="matrix(1 0 0 -1 0 467.8898)">
	<stop  offset="0" style="stop-color:#FFFFFF;stop-opacity:0"/>
	<stop  offset="0.13" style="stop-color:#FFFFFF;stop-opacity:0.23"/>
	<stop  offset="0.23" style="stop-color:#FFFFFF;stop-opacity:0.41"/>
	<stop  offset="0.35" style="stop-color:#FFFFFF;stop-opacity:0.59"/>
	<stop  offset="0.48" style="stop-color:#FFFFFF;stop-opacity:0.74"/>
	<stop  offset="0.6" style="stop-color:#FFFFFF;stop-opacity:0.85"/>
	<stop  offset="0.72" style="stop-color:#FFFFFF;stop-opacity:0.93"/>
	<stop  offset="0.84" style="stop-color:#FFFFFF;stop-opacity:0.98"/>
	<stop  offset="0.95" style="stop-color:#FFFFFF"/>
</linearGradient>
<rect x="255.2" y="373.4" class="st6" width="200.6" height="45.5"/>
<path class="st7" d="M261.8,392.3l1.3,13c0,0-5,7.5-11.5,8s-8.7-2.6-8.7-2.6l1.1-19.1"/>
<path class="st8" d="M242.8,410.7l0.4-7.7l19.1-5.1l0.7,7.4c0,0-5,7.5-11.5,8S242.8,410.7,242.8,410.7z"/>
<path class="st7" d="M200.9,393.7l-1.3,13.4c0,0,5.1,7.7,11.8,8.2s8.9-2.7,8.9-2.7l-1.1-19.7"/>
<path class="st8" d="M220.4,412.6l-0.4-7.9l-19.6-5.3l-0.7,7.6c0,0,5.1,7.7,11.8,8.2S220.4,412.6,220.4,412.6z"/>
<path class="st9" d="M216.9,101.7c0,0-25.8,12.5-26.4,16.6s2.9,104.6,2.9,104.6s8.4,10.9,34.1,10.9c26.3,0,33.1-7.5,34.2-11
	s5.4-103.7,4.8-108s-24.4-13-24.4-13L216.9,101.7z"/>
<path class="st10" d="M219.4,111.2V230c0,0,11.9,5.9,26.2-1.3l-5-125.1l-11.7,8.4L219.4,111.2z"/>
<path class="st7" d="M217,86.1c0,0-0.2,9-0.1,15.6c0.1,4.9,1.8,14.4,12.2,14.4s11.7-12,11.5-14.4c-0.1-1.7,0.7-5.1,0-10.5
	C240,85.5,217.6,82.1,217,86.1z"/>
<linearGradient id="SVGID_7_" gradientUnits="userSpaceOnUse" x1="230.8253" y1="358.46" x2="234.5353" y2="427.01" gradientTransform="matrix(1 0 0 -1 -2.41 465.8098)">
	<stop  offset="0" style="stop-color:#010101;stop-opacity:0"/>
	<stop  offset="0.95" style="stop-color:#010101"/>
</linearGradient>
<path class="st11" d="M221.2,102.8c1.1,1,2.3,1.8,3.7,2.3c2,0.8,4.2,1.1,6.3,1c1.3,0,2.6-0.4,3.7-1c1.3-0.8,2.3-1.9,3.2-3.1
	c1-1.2,1.8-2.5,2.4-4c0.2-0.8,0.4-1.7,0.4-2.6c0.1-1.9,0-3.7-0.2-5.6c-5.4,0.6-10.7,1-16.1,1.4c-3.1,0.2-8.4,0.9-7,5.3
	C218.3,98.8,219.5,100.9,221.2,102.8z"/>
<path class="st12" d="M193.4,222.9c0,0-1.2,19,1.8,75.4s4.4,95.9,4.4,95.9s0.4,4.6,10.1,4.8s12.3-6.3,12.3-6.3l9.5-144.6l9.9,147.6
	c0,0,11.7,6.7,20.8,1.7c6.5-3.6-0.4-174.6-0.4-174.6S230.6,239.9,193.4,222.9z"/>
<linearGradient id="SVGID_8_" gradientUnits="userSpaceOnUse" x1="229.8845" y1="113.0996" x2="235.6046" y2="310.8696" gradientTransform="matrix(1 0 0 -1 -2.41 465.8098)">
	<stop  offset="0" style="stop-color:#010101;stop-opacity:0"/>
	<stop  offset="0.95" style="stop-color:#010101"/>
</linearGradient>
<path class="st13" d="M193.4,222.9c0,0-1.2,19,1.8,75.4s4.4,95.9,4.4,95.9s0.4,4.6,10.1,4.8s12.3-6.3,12.3-6.3l9.5-144.6l9.9,147.6
	c0,0,11.7,6.7,20.8,1.7c6.5-3.6-0.4-174.6-0.4-174.6S230.6,239.9,193.4,222.9z"/>
<path class="st9" d="M266.5,114.8c0,0,11.7,49.3,12.6,57.6s-6.8,28.3-11.6,27c-10.6-3-8.9-21.2-8.9-21.2L266.5,114.8z"/>
<path class="st7" d="M273.9,206.9c0.5-0.6,1.4-0.8,2.1-0.6c0.8,0.4,1.3,1.1,1.5,2c2.4,6,2.1,11.3,2.3,17.5c0.1,4.3,0.6,9.1-0.3,13.4
	c-0.8,3.8-12,13.2-13.6,12.1s1.9-4.4,4.1-6.2s2.4-6.6,2.7-8.1s-3.3-1.5-2.3-6.1c0.7-3.4,2.2-5,1.9-8.5c-0.3-4.2-0.2-8.3,0.4-12.5
	c0.1-0.9,0.4-1.9,0.8-2.7C273.7,207.2,273.8,207,273.9,206.9z"/>
<path class="st9" d="M261.8,191.5c-0.2,0.8,9.3,31.8,9.3,31.8s4.2,0.9,10.8-2.3c0,0-1.2-43.7-2.3-46.7s-3.2-2.3-13,1.1
	S261.8,191.5,261.8,191.5z"/>
<path class="st9" d="M189.7,116.3c0,0-11.7,49.3-12.6,57.6s6.8,28.3,11.6,27c10.6-3,8.9-21.2,8.9-21.2L189.7,116.3z"/>
<path class="st7" d="M182.3,208.4c-0.5-0.6-1.4-0.8-2.1-0.6c-0.8,0.4-1.3,1.1-1.5,2c-2.4,6-2.1,11.3-2.3,17.5
	c-0.1,4.3-0.6,9.2,0.3,13.4c0.8,3.8,12,13.2,13.6,12.1s-1.9-4.4-4.1-6.2s-2.4-6.6-2.7-8.1s3.3-1.5,2.3-6.1c-0.7-3.4-2.2-5-1.9-8.5
	c0.3-4.2,0.2-8.3-0.4-12.5c-0.1-0.9-0.3-1.9-0.8-2.7C182.6,208.7,182.5,208.5,182.3,208.4z"/>
<path class="st9" d="M194.4,193.1c0.2,0.8-9.3,31.8-9.3,31.8s-4.2,0.9-10.8-2.3c0,0,1.2-43.6,2.3-46.7s3.2-2.3,13,1.1
	S194.4,193.1,194.4,193.1z"/>
<path class="st9" d="M208.7,409.3c-3.7-1.9-7.7-4-11.7-3c-2,0.6-3.9,1.7-5.5,3.1c-3.3,2.6-6.5,5.6-7.9,9.5s-0.8,8.9,2.6,11.4
	c2.5,1.9,5.9,2,9,2c3.9,0.1,7.8-0.3,11.6-1.2c2.9-0.9,5.6-2.2,8.1-3.7c3-1.7,6.1-3.8,7.6-6.9c1.2-2.3,1.4-7.4-1.5-8.8
	c-1.4-0.6-3.9,0.3-5.6,0C213,411.3,210.7,410.4,208.7,409.3z"/>
<path class="st9" d="M253.2,409.3c3.7-1.9,7.7-4,11.7-3c2,0.6,3.9,1.7,5.5,3.1c3.3,2.6,6.5,5.6,7.9,9.5s0.8,8.9-2.6,11.4
	c-2.5,1.9-5.9,2-9,2c-3.9,0.1-7.8-0.3-11.6-1.2c-2.9-0.9-5.6-2.2-8.1-3.7c-3-1.7-6-3.8-7.6-6.9c-1.2-2.3-1.4-7.4,1.5-8.8
	c1.4-0.6,3.9,0.3,5.6,0C248.9,411.2,251.1,410.4,253.2,409.3z"/>
<linearGradient id="SVGID_9_" gradientUnits="userSpaceOnUse" x1="248.0602" y1="279.8055" x2="351.2303" y2="285.5155" gradientTransform="matrix(1 0 0 -1 0 467.8898)">
	<stop  offset="0" style="stop-color:#010101;stop-opacity:0"/>
	<stop  offset="0.95" style="stop-color:#010101"/>
</linearGradient>
<polygon class="st14" points="255.5,149.1 253,226.4 261.8,222.8 263.4,198.3 260.3,179.6 "/>
<path class="st7" d="M208.7,57.9c0.2,10.3,1.7,20.5,4.4,30.4c0.6,2.5,1.6,4.9,3.1,7.1c1.8,2.2,4.3,3.7,7.1,4.3
	c2.7,0.5,5.6,0.4,8.3-0.3c3.7-0.7,7.1-2.6,9.6-5.4c1.5-1.9,2.6-4.1,3.3-6.5c2.7-7.9,3.6-16.3,2.5-24.5c-0.5-4-1.7-8.2-4.7-10.7
	c-1.8-1.3-3.9-2.2-6.1-2.6c-8-1.6-16.3-0.3-23.4,3.7c-1.1,0.5-2.1,1.4-2.9,2.4c-0.6,1.2-0.9,2.6-0.9,4"/>
<path class="st12" d="M210.3,75.5c-0.3-3.2-1.9-6.2-3.4-9c-1.5-2.8-2.9-6-2.8-9.2s2.3-6.6,5.6-7c0.8-4.4,3-8.7,6.7-11.1
	c5.3-3.5,12.3-2.6,18.4-0.8c4.9,1.5,10.2,4,12.1,8.8c0.6,1.7,0.9,3.5,1,5.3c0.5,6.5,0.9,13.5-2.7,18.9c0.1-4.7-0.4-9.3-1.6-13.8
	c-8.3,3.3-17.4,3.5-25.9,0.6C208.6,55,209.7,69.9,210.3,75.5z"/>
<path class="st9" d="M410.8,325.3h26.8c2.5,0,4.6,2,4.6,4.6v13.3c0,2.5-2,4.6-4.6,4.6h-26.8c-2.5,0-4.6-2-4.6-4.6v-13.3
	C406.3,327.3,408.3,325.3,410.8,325.3z"/>
<path class="st9" d="M425.1,329.9h-3.3c-2.9,0-5.3-2.4-5.3-5.3c0-2.9,2.4-5.3,5.3-5.3h3.3c2.9,0,5.3,2.4,5.3,5.3
	C430.4,327.6,428.1,329.9,425.1,329.9z M421.8,322.9c-1,0-1.8,0.8-1.8,1.8c0,1,0.8,1.8,1.8,1.8l0,0h3.3c1,0,1.8-0.8,1.8-1.8
	c0-1-0.8-1.8-1.8-1.8l0,0H421.8z"/>
<polygon class="st9" points="436.6,138.9 436.6,161.7 428.8,161.7 428.8,147.3 421.6,147.3 421.6,161.7 413,161.7 413,138.9 
	424.7,132.7 "/>
<path class="st9" d="M410,138.7c-0.5,0-0.9-0.4-0.9-0.9c0-0.3,0.2-0.6,0.5-0.8l15-8.1l15,7.7c0.4,0.2,0.6,0.8,0.4,1.2
	c-0.2,0.4-0.8,0.6-1.2,0.4l-14.1-7.3l-14.2,7.6C410.4,138.7,410.2,138.7,410,138.7z"/>
<path class="st9" d="M423.7,219.6c-2.8-0.7-10.8-6.2-12.8-11.2c-0.5-1.1-0.7-2.2-0.8-3.4c0.1-3.3,2.5-6.1,5.7-6.8
	c3.3-0.7,6.7,0.8,8.4,3.7c0.9-1.5,2.3-2.7,4-3.3c4.5-1.6,7.8,2.7,8,4.1C437.7,213.9,423.7,219.6,423.7,219.6z"/>
<path class="st9" d="M424,287.7v-4.3c-2.3,0-4.5-0.7-6.5-1.9l1-2.8c1.8,1.2,3.9,1.8,6.1,1.8c3,0,5-1.7,5-4.1s-1.6-3.8-4.8-5
	c-4.3-1.7-7-3.6-7-7.3c0-3.5,2.5-6.1,6.4-6.8v-4.3h2.6v4.1c1.9,0,3.8,0.5,5.5,1.5l-1,2.8c-1.6-1-3.4-1.4-5.3-1.4
	c-3.3,0-4.5,1.9-4.5,3.6c0,2.2,1.6,3.3,5.2,4.8c4.3,1.8,6.5,4,6.5,7.7c0,3.3-2.3,6.4-6.7,7.2v4.4L424,287.7z"/>
<path class="st9" d="M418,97.6c7.3-0.2,14.5-0.3,21.8-0.1c0.8-4.8-1.5-9.5-5.7-12c-1-0.6-2.2-1.1-2.6-2.3s0.4-2.2,0.7-3.2
	c0.7-2.2,0.1-4.6-1.7-6.1c-1.8-1.4-4.4-1.3-6.2,0.2c-0.7,0.7-1.2,1.6-1.5,2.5c-0.6,1.8-0.5,3.7,0.3,5.5c0.5,0.6,0.7,1.4,0.8,2.2
	c-0.1,0.8-0.8,1.4-1.4,2C419.5,89.2,417.8,93.4,418,97.6z"/>
<polygon class="st9" points="436.4,412.5 410.7,412.5 410.7,382.8 432.3,382.7 436.4,387 "/>
<linearGradient id="SVGID_10_" gradientUnits="userSpaceOnUse" x1="416.47" y1="73.6198" x2="431.14" y2="73.6198" gradientTransform="matrix(1 0 0 -1 0 467.8898)">
	<stop  offset="0" style="stop-color:#FFFFFF;stop-opacity:0"/>
	<stop  offset="0.13" style="stop-color:#FFFFFF;stop-opacity:0.23"/>
	<stop  offset="0.23" style="stop-color:#FFFFFF;stop-opacity:0.41"/>
	<stop  offset="0.35" style="stop-color:#FFFFFF;stop-opacity:0.59"/>
	<stop  offset="0.48" style="stop-color:#FFFFFF;stop-opacity:0.74"/>
	<stop  offset="0.6" style="stop-color:#FFFFFF;stop-opacity:0.85"/>
	<stop  offset="0.72" style="stop-color:#FFFFFF;stop-opacity:0.93"/>
	<stop  offset="0.84" style="stop-color:#FFFFFF;stop-opacity:0.98"/>
	<stop  offset="0.95" style="stop-color:#FFFFFF"/>
</linearGradient>
<rect x="416.5" y="392.9" class="st15" width="14.7" height="2.8"/>
<linearGradient id="SVGID_11_" gradientUnits="userSpaceOnUse" x1="416.47" y1="64.5898" x2="431.14" y2="64.5898" gradientTransform="matrix(1 0 0 -1 0 467.8898)">
	<stop  offset="0" style="stop-color:#FFFFFF;stop-opacity:0"/>
	<stop  offset="0.13" style="stop-color:#FFFFFF;stop-opacity:0.23"/>
	<stop  offset="0.23" style="stop-color:#FFFFFF;stop-opacity:0.41"/>
	<stop  offset="0.35" style="stop-color:#FFFFFF;stop-opacity:0.59"/>
	<stop  offset="0.48" style="stop-color:#FFFFFF;stop-opacity:0.74"/>
	<stop  offset="0.6" style="stop-color:#FFFFFF;stop-opacity:0.85"/>
	<stop  offset="0.72" style="stop-color:#FFFFFF;stop-opacity:0.93"/>
	<stop  offset="0.84" style="stop-color:#FFFFFF;stop-opacity:0.98"/>
	<stop  offset="0.95" style="stop-color:#FFFFFF"/>
</linearGradient>
<rect x="416.5" y="401.9" class="st16" width="14.7" height="2.8"/>
<path class="st0" d="M311.2,80.8h90.5c2.3,0,4.2,1.9,4.2,4.2v0c0,2.3-1.9,4.2-4.2,4.2h-90.5c-2.3,0-4.2-1.9-4.2-4.2v0
	C307,82.7,308.9,80.8,311.2,80.8z"/>
<path class="st0" d="M311.2,145.1h90.5c2.3,0,4.2,1.9,4.2,4.2v0c0,2.3-1.9,4.2-4.2,4.2h-90.5c-2.3,0-4.2-1.9-4.2-4.2v0
	C307,147,308.9,145.1,311.2,145.1z"/>
<path class="st0" d="M311.2,209.4h90.5c2.3,0,4.2,1.9,4.2,4.2v0c0,2.3-1.9,4.2-4.2,4.2h-90.5c-2.3,0-4.2-1.9-4.2-4.2v0
	C307,211.3,308.9,209.4,311.2,209.4z"/>
<path class="st0" d="M311.2,273.7h90.5c2.3,0,4.2,1.9,4.2,4.2v0c0,2.3-1.9,4.2-4.2,4.2h-90.5c-2.3,0-4.2-1.9-4.2-4.2v0
	C307,275.6,308.9,273.7,311.2,273.7z"/>
<path class="st0" d="M311.2,338h90.5c2.3,0,4.2,1.9,4.2,4.2v0c0,2.3-1.9,4.2-4.2,4.2h-90.5c-2.3,0-4.2-1.9-4.2-4.2v0
	C307,339.9,308.9,338,311.2,338z"/>
<path class="st0" d="M311.2,402.3h90.5c2.3,0,4.2,1.9,4.2,4.2v0c0,2.3-1.9,4.2-4.2,4.2h-90.5c-2.3,0-4.2-1.9-4.2-4.2v0
	C307,404.2,308.9,402.3,311.2,402.3z"/>
</svg>
