<?xml version="1.0" encoding="utf-8"?>
<!-- Generator: Adobe Illustrator 24.0.1, SVG Export Plug-In . SVG Version: 6.00 Build 0)  -->
<svg version="1.1" id="Layer_1" xmlns="http://www.w3.org/2000/svg" xmlns:xlink="http://www.w3.org/1999/xlink" x="0px" y="0px"
	 viewBox="0 0 633.8 597.3" style="enable-background:new 0 0 633.8 597.3;" xml:space="preserve">
<style type="text/css">
	.st0{fill:#8AB0FA;}
	.st1{fill:url(#SVGID_1_);}
	.st2{fill:url(#SVGID_2_);}
	.st3{fill:url(#SVGID_3_);}
	.st4{fill:url(#SVGID_4_);}
	.st5{fill:url(#SVGID_5_);}
	.st6{fill:url(#SVGID_6_);}
	.st7{fill:url(#SVGID_7_);}
	.st8{fill:url(#SVGID_8_);}
	.st9{fill:url(#SVGID_9_);}
	.st10{fill:#3F3D56;}
	.st11{fill:url(#SVGID_10_);}
	.st12{fill:url(#SVGID_11_);}
	.st13{fill:url(#SVGID_12_);}
	.st14{fill:url(#SVGID_13_);}
	.st15{fill:url(#SVGID_14_);}
	.st16{fill:url(#SVGID_15_);}
	.st17{fill:#25233A;}
	.st18{opacity:0.19;fill:url(#SVGID_16_);enable-background:new    ;}
	.st19{opacity:0.57;fill:#FFFFFF;enable-background:new    ;}
</style>
<title>37. VR</title>
<path class="st0" d="M60.8,21.4l136.1,54.9c4.2,1.7,6.9,5.8,6.9,10.3v232.1c0,6.1-5,11.1-11.1,11.1c-1.5,0-3-0.3-4.4-0.9L49.3,269
	c-4.1-1.8-6.7-5.8-6.6-10.3l2.9-227.2c0.1-6.1,5.1-11,11.2-10.9C58.2,20.6,59.5,20.8,60.8,21.4z"/>
<path class="st0" d="M51.9,24.9l136,54.9c4.2,1.7,7,5.7,7,10.3v232.2c0,6.1-5,11.1-11.1,11.1c-1.5,0-3-0.3-4.4-0.9l-139-59.8
	c-4.1-1.8-6.8-5.8-6.7-10.3L36.7,35c0.1-6.1,5.1-11,11.2-10.9C49.3,24.1,50.6,24.3,51.9,24.9z"/>
<path class="st0" d="M491.9,20.5l134.4,54.2c4.5,1.8,7.4,6.2,7.5,11V316c0,6.6-5.3,11.9-11.9,12c-1.6,0-3.2-0.3-4.7-1L479.9,268
	c-4.4-1.9-7.3-6.3-7.2-11.1l2.9-225.4c0.1-6.6,5.5-11.9,12.1-11.8C489.1,19.7,490.6,20,491.9,20.5z"/>
<path class="st0" d="M483.9,25.3l134.3,54.2c4.5,1.8,7.5,6.2,7.5,11.1v230.3c0,6.6-5.3,11.9-11.9,12c-1.6,0-3.2-0.3-4.7-1l-137.2-59
	c-4.4-1.9-7.3-6.3-7.2-11.1l2.9-225.4c0-6.6,5.4-11.9,12-11.9C481,24.5,482.5,24.8,483.9,25.3z"/>
<linearGradient id="SVGID_1_" gradientUnits="userSpaceOnUse" x1="263.0763" y1="19.1093" x2="216.6563" y2="449.0694" gradientTransform="matrix(1 0 0 -1 -105.07 599.6097)">
	<stop  offset="1.000000e-02" style="stop-color:#000000"/>
	<stop  offset="0.99" style="stop-color:#000000;stop-opacity:0"/>
</linearGradient>
<path class="st1" d="M51.9,24.9l136,54.9c4.2,1.7,7,5.7,7,10.3v232.2c0,6.1-5,11.1-11.1,11.1c-1.5,0-3-0.3-4.4-0.9l-139-59.8
	c-4.1-1.8-6.8-5.8-6.7-10.3L36.7,35c0.1-6.1,5.1-11,11.2-10.9C49.3,24.1,50.6,24.3,51.9,24.9z"/>
<linearGradient id="SVGID_2_" gradientUnits="userSpaceOnUse" x1="683.1379" y1="118.7695" x2="636.7079" y2="548.7296" gradientTransform="matrix(1 0 0 -1 -105.07 599.6097)">
	<stop  offset="1.000000e-02" style="stop-color:#000000"/>
	<stop  offset="0.99" style="stop-color:#000000;stop-opacity:0"/>
</linearGradient>
<path class="st2" d="M483.9,25.3l134.3,54.2c4.5,1.8,7.5,6.2,7.5,11.1v230.3c0,6.6-5.3,11.9-11.9,12c-1.6,0-3.2-0.3-4.7-1l-137.2-59
	c-4.4-1.9-7.3-6.3-7.2-11.1l2.9-225.4c0-6.6,5.4-11.9,12-11.9C481,24.5,482.5,24.8,483.9,25.3z"/>
<path class="st0" d="M436.9,288.7l-27,2.1l-3.2-16.2c-2.2-4.9,3.2,16.2-11.5,95.6l-8.5-1.9L297.5,348l21.6-114l-37.7-2.6l6.4-35.5
	l18.8,1.6c0,0,33.7-3.5,58.9,0s42.8,4.4,54.8,16.7S436.9,288.7,436.9,288.7z"/>
<linearGradient id="SVGID_3_" gradientUnits="userSpaceOnUse" x1="542.634" y1="260.9075" x2="384.0739" y2="339.1875" gradientTransform="matrix(1 0 0 -1 -105.07 599.6097)">
	<stop  offset="1.000000e-02" style="stop-color:#000000"/>
	<stop  offset="0.15" style="stop-color:#000000;stop-opacity:0.48"/>
	<stop  offset="0.99" style="stop-color:#000000;stop-opacity:0"/>
</linearGradient>
<path class="st3" d="M406.7,274.5c-2.2-4.9,3.2,16.2-11.5,95.6l-8.5-1.9l-8.9-2c0,0,9.4-22,4.1-26s-31.1,5.7-54.3,7.8
	s-20.2-4.4-20.2-4.4s21.2-19.3,57.1-29.7s37.6-64.3,37.6-64.3L406.7,274.5z"/>
<path class="st0" d="M351.4,202.9c0,0,22.6,0.9,31.1-5.8l7.1,3.9c0,0-1.9,13.5-13,15.3S351.4,217.5,351.4,202.9z"/>
<linearGradient id="SVGID_4_" gradientUnits="userSpaceOnUse" x1="515.8101" y1="385.0001" x2="452.0301" y2="398.0101" gradientTransform="matrix(1 0 0 -1 -105.07 599.6097)">
	<stop  offset="1.000000e-02" style="stop-color:#000000"/>
	<stop  offset="0.99" style="stop-color:#000000;stop-opacity:0"/>
</linearGradient>
<path class="st4" d="M351.4,202.9c0,0,22.6,0.9,31.1-5.8l7.1,3.9c0,0-1.9,13.5-13,15.3S351.4,217.5,351.4,202.9z"/>
<linearGradient id="SVGID_5_" gradientUnits="userSpaceOnUse" x1="424.4078" y1="285.7119" x2="421.2678" y2="282.4619" gradientTransform="matrix(1 0 0 -1 -105.07 599.6097)">
	<stop  offset="0" style="stop-color:#ECC4D7"/>
	<stop  offset="0.42" style="stop-color:#EFD4D1"/>
	<stop  offset="1" style="stop-color:#F2EAC9"/>
</linearGradient>
<path class="st5" d="M331.6,317.2l-23.3-7.8c0,0-2.7,1.8,1.3,4.8c1.7,1.3,3.4,2.7,4.9,4.2L331.6,317.2z"/>
<linearGradient id="SVGID_6_" gradientUnits="userSpaceOnUse" x1="476.0888" y1="411.8412" x2="488.5788" y2="395.5612" gradientTransform="matrix(1 0 0 -1 -105.07 599.6097)">
	<stop  offset="0" style="stop-color:#ECC4D7"/>
	<stop  offset="0.83" style="stop-color:#F2EAC9"/>
</linearGradient>
<path class="st6" d="M353,193.2c0.5-4,0.7-8.4,3.3-11.6c1.6-1.7,3.5-3.1,5.6-4.1l16.9-9.4c2.1-1.1,4.3-2.3,6.6-2
	c0.6,0,1.1,0.3,1.6,0.6c1.1,0.9,1,2.7,0.7,4.1c-1.7,8.7-3.4,17.5-5.2,26.2c-0.4,2.5-1.1,4.9-2.1,7.2c-2.9,5.3-8.5,8.5-14.5,8.2
	c-4.8-0.3-9.3-2.4-12.6-5.9C349.5,202.6,352.4,198.2,353,193.2z"/>
<linearGradient id="SVGID_7_" gradientUnits="userSpaceOnUse" x1="397.1784" y1="283.3218" x2="541.9583" y2="283.3218" gradientTransform="matrix(1 0 0 -1 -105.07 599.6097)">
	<stop  offset="0" style="stop-color:#ECC4D7"/>
	<stop  offset="0.42" style="stop-color:#EFD4D1"/>
	<stop  offset="1" style="stop-color:#F2EAC9"/>
</linearGradient>
<path class="st7" d="M408.1,324.9c3.3-0.5,6.5-1.5,9.4-3.1c5.9-3.1,15.3-8.7,17.1-13.2c2.7-6.6,2.2-19.9,2.2-19.9l-27,2.1
	c0,0,0.2,8.5-2,8.8s-73.9,18.3-73.9,18.3s-11.1-3.6-20.8,0.1s-24.1,12.4-20.4,17c1.1,1.4,2.8,2.2,4.6,2.2c3.2,0.1,1.9,3.8,3.8,5.2
	c2.5,1.9,27.8,3.8,36.4-5.2C339.7,334.9,392,327.2,408.1,324.9z"/>
<linearGradient id="SVGID_8_" gradientUnits="userSpaceOnUse" x1="327.7678" y1="446.8961" x2="392.86" y2="446.8961" gradientTransform="matrix(1 0 0 -1 -105.07 599.6097)">
	<stop  offset="0" style="stop-color:#ECC4D7"/>
	<stop  offset="0.42" style="stop-color:#EFD4D1"/>
	<stop  offset="1" style="stop-color:#F2EAC9"/>
</linearGradient>
<path class="st8" d="M287.8,196l-4.5,24.9c-4.3-3.1-8.9-5.9-13.6-8.3c-7.9-4.1-26.5-56-26.5-56s-2-9.3-7.8-12.4s-5.5-13.3-5.5-16.6
	l0,0c0-3.3-3-8.4-5.9-12.4s0-6.1,0-6.1s7.6,7.2,7.7,6.3s-3.8-10.7-6-13.2s-2.1-6.6-0.9-7.2s13,14.8,13,14.8
	c-0.4-3.9-1.3-7.7-2.9-11.2c-2.4-5.2-1.8-11.1,0-10.2s9.3,18,9.3,14.7s-6-20.1-1.2-18.3c1.8,0.7,3.7,4.1,5.7,9.5
	c3.3,8.9,6.5,23,8.8,37.8C261.3,155.7,287.8,196,287.8,196z"/>
<linearGradient id="SVGID_9_" gradientUnits="userSpaceOnUse" x1="327.7778" y1="486.7749" x2="356.5941" y2="486.7749" gradientTransform="matrix(1 0 0 -1 -105.07 599.6097)">
	<stop  offset="0" style="stop-color:#ECC4D7"/>
	<stop  offset="0.42" style="stop-color:#EFD4D1"/>
	<stop  offset="1" style="stop-color:#F2EAC9"/>
</linearGradient>
<path class="st9" d="M251.5,116.9c0,0-5.1-5.9-8.8-5.1s0.8,6.9,0.8,6.9s3.1,5.4,1.6,9.1c-1.5,3.7-2.5,12.1-2.1,12.4
	s-3.3,3.8-7.3-5.1c-1.3-2.9-3.3-5.5-5.7-7.6c0-3.3-3-8.4-5.9-12.4s0-6.1,0-6.1s7.6,7.2,7.7,6.3s-3.8-10.7-6-13.2s-2.1-6.6-0.9-7.2
	s13,14.8,13,14.8c-0.4-3.9-1.3-7.7-2.9-11.2c-2.4-5.2-1.8-11.1,0-10.2s9.3,18,9.3,14.7s-6-20.1-1.2-18.3c1.8,0.7,3.7,4.1,5.7,9.5
	C248.8,94.1,251.9,110.3,251.5,116.9z"/>
<path class="st10" d="M431.6,539.8l-36.5,25.1c-5.5-10.6,14.7-30.5,14.7-30.5s-31-48.8-43.1-81.5c-9.2-24.8-13-50.5-27.5-50.2
	c-4.6,0.1-10.3,2.8-17.5,8.9c-30.1,25.5-20.6,112.1-20.6,112.1l-9,5.1l0,0L256,549.2l-1.5-8.7c-1.4-19.5,25.1-28.8,25.1-28.8
	s-3.1-42.5,0-85s18-78.7,18-78.7l80.4,18.2l11.7,2.6C388.9,452.3,430.9,538.5,431.6,539.8L431.6,539.8z"/>
<linearGradient id="SVGID_10_" gradientUnits="userSpaceOnUse" x1="497.4737" y1="471.9208" x2="430.3915" y2="431.5795" gradientTransform="matrix(1 0 0 -1 -105.07 599.6097)">
	<stop  offset="0" style="stop-color:#ECC4D7"/>
	<stop  offset="0.83" style="stop-color:#F2EAC9"/>
</linearGradient>
<path class="st11" d="M395.7,148.6c-0.5,3.4-1.4,6.7-2.6,9.9c0.7,0,1.3,0.3,1.6,0.9c1.9,3.2-2.5,13.8-8.3,12.6
	c-3.2,5.4-6.9,10.6-11.9,14.4c-11.2,8.4-28.5,7.3-38.5-2.5c-7.4-7.2-10.5-17.9-10.5-28.2c0.1-12,3.3-31.1,10.9-40.9
	s23.7-6.1,33.6-2.7c7.7,2.6,15.4,6.2,20.4,12.6C395.5,131.2,396.9,140.2,395.7,148.6z"/>
<path class="st10" d="M327.6,101.7c2.3-3.2,1.4-7.6,1.7-11.6c0.4-4.7,3.3-9.6,8-10.4c2-0.3,3.9,0.1,5.9,0.1c4,0,7.8-2,11.5-3.4
	s8.2-2.3,11.7-0.4c2.2,1.2,3.7,3.3,5.6,5c2.8,2.5,6.4,3.9,10.2,4c3,0.1,6.1-0.7,9.1-0.7s6.4,0.9,8,3.5c1.8,2.7,1.1,6.3,1.7,9.5
	c0.5,2.4,2.3,3.8,4.4,5.1c2.1,1.3,4.4,2.3,5.8,4.3c1.5,2.3,1.9,5.2,1.1,7.9c-0.8,2.6-2.1,5.1-3.8,7.2c-1,1.5-2.1,3.1-1.9,4.9
	c0.3,2.4,2.9,3.6,4.4,5.5c2.5,3.4,1.7,8.1-1.6,10.6c-0.3,0.2-0.6,0.4-0.9,0.6c-1.2,0.6-2.7,0.8-3.7,1.7c-2.5,2.1-1.4,6.6-3.9,8.7
	c-2,1.8-5.5,0.7-7.1-1.4s-5.5-7.6-5.9-10.3c-0.7-4.3,1.7-6.3-1.3-9.5c-3.5-3.8-8.8-5-13.6-6.9c-5.9-2.4-13.1-1.9-18.9-4.4
	c-5.1-2.2-12.6-4.5-17.8-6.6S330.7,106.4,327.6,101.7z"/>
<path class="st0" d="M389.1,141.1l13,8.1c0,0-3.8,10.8-6.9,12l-15.9-6.9L389.1,141.1z"/>
<linearGradient id="SVGID_11_" gradientUnits="userSpaceOnUse" x1="500.3121" y1="456.5637" x2="493.3721" y2="442.6737" gradientTransform="matrix(1 0 0 -1 -105.07 599.6097)">
	<stop  offset="1.000000e-02" style="stop-color:#000000"/>
	<stop  offset="0.99" style="stop-color:#000000;stop-opacity:0"/>
</linearGradient>
<path class="st12" d="M389.1,141.1l13,8.1c0,0-3.8,10.8-6.9,12l-15.9-6.9L389.1,141.1z"/>
<path class="st0" d="M328.4,102c0,0-17.2,0.3-21.4,6.3s-8.3,25.8-8.3,25.8l58.8,25.9c0,0,7.8,3.4,14.5-1.4s18.4-8.7,17.9-14.9
	s4.3-12.4-5.3-17.2C375.1,121.8,334.8,115.2,328.4,102z"/>
<linearGradient id="SVGID_12_" gradientUnits="userSpaceOnUse" x1="399.1299" y1="459.14" x2="532.4099" y2="482.39" gradientTransform="matrix(1 0 0 -1 -105.07 599.6097)">
	<stop  offset="1.000000e-02" style="stop-color:#000000"/>
	<stop  offset="0.99" style="stop-color:#000000;stop-opacity:0"/>
</linearGradient>
<path class="st13" d="M328.4,102c0,0-17.2,0.3-21.4,6.3s-8.3,25.8-8.3,25.8l58.8,25.9c0,0,7.8,3.4,14.5-1.4s18.4-8.7,17.9-14.9
	s4.3-12.4-5.3-17.2C375.1,121.8,334.8,115.2,328.4,102z"/>
<path class="st0" d="M307,108.3c0,0,58.6,21.6,61.1,23.7s-1.4,17.3-4.9,24.7s-9.8,4.5-9.8,4.5l-53.2-20.8c0,0-3.5-2.2,0-13.9
	S305.6,111.1,307,108.3z"/>
<linearGradient id="SVGID_13_" gradientUnits="userSpaceOnUse" x1="430.5796" y1="441.6999" x2="448.8696" y2="490.9899" gradientTransform="matrix(1 0 0 -1 -105.07 599.6097)">
	<stop  offset="1.000000e-02" style="stop-color:#000000"/>
	<stop  offset="0.99" style="stop-color:#000000;stop-opacity:0"/>
</linearGradient>
<path class="st14" d="M307,108.3c0,0,58.6,21.6,61.1,23.7s-1.4,17.3-4.9,24.7s-9.8,4.5-9.8,4.5l-53.2-20.8c0,0-3.5-2.2,0-13.9
	S305.6,111.1,307,108.3z"/>
<path class="st0" d="M297.9,121.5c0.5-1.6,3.1-3.2,4.7-2.6c12.8,4.8,62.1,24.1,67.5,24.1c6.3,0,19.8-2.8,19.8-2.8
	c0.3,1.1,0.3,2.3,0,3.5c-0.5,1.4-16.3,7.5-23.2,6.4c-6-1-55.2-17.9-66.9-22.3c-1.4-0.5-2.7-3.8-2.3-5.2L297.9,121.5z"/>
<linearGradient id="SVGID_14_" gradientUnits="userSpaceOnUse" x1="450.1702" y1="471.9827" x2="445.3802" y2="451.5627" gradientTransform="matrix(1 0 0 -1 -105.07 599.6097)">
	<stop  offset="1.000000e-02" style="stop-color:#000000"/>
	<stop  offset="0.99" style="stop-color:#000000;stop-opacity:0"/>
</linearGradient>
<path class="st15" d="M297.9,121.5c0.5-1.6,3.1-3.2,4.7-2.6c12.8,4.8,62.1,24.1,67.5,24.1c6.3,0,19.8-2.8,19.8-2.8
	c0.3,1.1,0.3,2.3,0,3.5c-0.5,1.4-16.3,7.5-23.2,6.4c-6-1-55.2-17.9-66.9-22.3c-1.4-0.5-2.7-3.8-2.3-5.2L297.9,121.5z"/>
<linearGradient id="SVGID_15_" gradientUnits="userSpaceOnUse" x1="411.1898" y1="346.5897" x2="401.0298" y2="385.9297" gradientTransform="matrix(1 0 0 -1 -105.07 599.6097)">
	<stop  offset="1.000000e-02" style="stop-color:#000000"/>
	<stop  offset="0.99" style="stop-color:#000000;stop-opacity:0"/>
</linearGradient>
<path class="st16" d="M283.3,220.9h25.3c6,0,10.8,4.8,10.8,10.8c0,0.7-0.1,1.4-0.2,2.1l-0.1,0.3l-37.7-2.6L283.3,220.9z"/>
<path class="st17" d="M431.6,539.8c-52.1-54.8-53.8-173.6-53.8-173.6l11.7,2.6C388.9,452.3,430.9,538.5,431.6,539.8z"/>
<path class="st17" d="M339.3,402.7c-4.6,0.1-10.3,2.8-17.5,8.9c-30.1,25.5-20.6,112.1-20.6,112.1l-9,5.1l0,0
	c-7.5-45.4-8-84.4,15.2-115.5C316.5,401,337.9,402.6,339.3,402.7z"/>
<linearGradient id="SVGID_16_" gradientUnits="userSpaceOnUse" x1="233.5819" y1="52.248" x2="598.1948" y2="52.248" gradientTransform="matrix(1 0 0 -1 -105.07 599.6097)">
	<stop  offset="0" style="stop-color:#183866"/>
	<stop  offset="1" style="stop-color:#1A7FC1"/>
</linearGradient>
<path class="st18" d="M160.5,529.8c-3.3,6.3-4.6,14.1-10,18.7s-14.2,4.9-19,10.4c-6,6.8-2.1,18.3,5.3,23.5s17.1,5.6,26.2,5.9
	l246.1,8.8c17.2,0.6,35.8,0.8,49.5-9.6c16.7-12.7,19-40.3,4.6-55.6c7.3-0.6,14.9-1.3,21.2-5.2s10.7-11.8,8.1-18.6
	c-3.3-8.7-14.7-10.4-23.9-10.6c-61.5-1.1-120.3,12.4-181.2,15.5C253.7,514.7,180.2,492.3,160.5,529.8z"/>
<path class="st19" d="M228.9,240.4c4.1,16.1,23,22.7,39.1,26.5c40.5,9.6,73.8,7.4,114.8-0.3c18.4-3.4,46.7-4.5,68.9,1.7
	c2,0.6,7.1-16.8,5.8-18.5c-0.9-1.2-17.8-3.1-19.3-3.4c-12.8-2.3-44.7-1.5-57.6,0c-31.1,3.5-67.2-36.1-78.7-7.1
	C300.4,243.5,225.6,227.1,228.9,240.4z"/>
</svg>
